<svg xmlns="http://www.w3.org/2000/svg" xmlns:xlink="http://www.w3.org/1999/xlink" width="576" zoomAndPan="magnify" viewBox="0 0 432 392.999991" height="524" preserveAspectRatio="xMidYMid meet" version="1.0"><defs><clipPath id="505e7c6658"><path d="M 120 17.078125 L 341 17.078125 L 341 278 L 120 278 Z M 120 17.078125 " clip-rule="nonzero"/></clipPath></defs><rect x="-43.2" width="518.4" fill="#ffffff" y="-39.299999" height="471.599989" fill-opacity="1"/><rect x="-43.2" width="518.4" fill="#ffffff" y="-39.299999" height="471.599989" fill-opacity="1"/><path fill="#efb9a3" d="M 210.277344 304.949219 L 273.253906 243.417969 C 275.695312 241.160156 278.765625 240.074219 281.835938 240.074219 C 285 240.074219 288.070312 241.160156 290.601562 243.507812 C 295.480469 248.027344 296.292969 255.433594 292.410156 260.765625 L 275.511719 284.257812 L 212.804688 317.78125 Z M 210.277344 304.949219 " fill-opacity="1" fill-rule="nonzero"/><path fill="#96cec2" d="M 226.992188 24.214844 C 199.703125 54.03125 145.492188 58.367188 130.128906 59 C 127.871094 59.09375 126.0625 61.078125 126.0625 63.25 L 126.0625 117.191406 C 126.0625 242.332031 218.40625 268.71875 229.160156 271.429688 C 229.792969 271.609375 230.515625 271.609375 231.148438 271.429688 C 241.898438 268.71875 334.242188 242.332031 334.242188 117.191406 L 334.242188 63.25 C 334.242188 61.078125 332.4375 59.09375 330.179688 59 C 314.816406 58.367188 260.605469 54.03125 233.316406 24.214844 C 231.601562 22.40625 228.707031 22.40625 226.992188 24.214844 Z M 226.992188 24.214844 " fill-opacity="1" fill-rule="nonzero"/><path fill="#ffffff" d="M 217.414062 196.34375 C 214.792969 196.34375 212.265625 195.4375 210.183594 193.722656 L 186.058594 173.933594 C 183.53125 171.855469 183.167969 168.152344 185.15625 165.621094 L 192.296875 156.40625 C 194.28125 153.875 197.898438 153.515625 200.335938 155.5 L 214.613281 167.246094 L 256.175781 100.746094 C 257.894531 98.035156 261.507812 97.222656 264.128906 98.9375 L 273.796875 105.355469 C 276.417969 107.070312 277.230469 110.777344 275.511719 113.484375 L 226.992188 190.921875 C 225.273438 193.722656 222.382812 195.621094 219.222656 196.160156 C 218.589844 196.253906 217.957031 196.34375 217.414062 196.34375 Z M 217.414062 196.34375 " fill-opacity="1" fill-rule="nonzero"/><g clip-path="url(#505e7c6658)"><path fill="#e2e2e2" d="M 230.152344 277.300781 C 229.339844 277.300781 228.527344 277.210938 227.714844 277.03125 C 216.78125 274.320312 120.28125 246.671875 120.28125 117.191406 L 120.28125 63.25 C 120.28125 57.917969 124.527344 53.488281 129.859375 53.21875 C 145.21875 52.585938 197.082031 48.339844 222.746094 20.328125 L 222.835938 20.238281 C 226.539062 16.261719 233.679688 16.261719 237.472656 20.238281 C 263.222656 48.339844 315.089844 52.585938 330.359375 53.21875 C 335.78125 53.488281 340.027344 57.917969 340.027344 63.25 L 340.027344 117.191406 C 340.027344 246.671875 243.527344 274.320312 232.503906 277.03125 C 231.78125 277.210938 230.96875 277.300781 230.152344 277.300781 Z M 229.703125 265.824219 L 229.613281 265.824219 Z M 230.515625 265.824219 C 230.515625 265.824219 230.515625 265.824219 230.605469 265.824219 C 230.515625 265.824219 230.515625 265.824219 230.515625 265.824219 Z M 131.847656 64.695312 L 131.847656 117.191406 C 131.847656 236.460938 218.316406 262.664062 230.152344 265.644531 C 242.441406 262.484375 328.460938 236.097656 328.460938 117.191406 L 328.460938 64.695312 C 310.75 63.878906 258.34375 58.820312 230.152344 29.363281 C 201.964844 58.730469 149.648438 63.878906 131.847656 64.695312 Z M 131.847656 64.695312 " fill-opacity="1" fill-rule="nonzero"/></g><path fill="#fecdb6" d="M 334.242188 285.160156 C 334.242188 290.582031 331.351562 295.734375 326.382812 298.261719 L 224.011719 353.832031 C 215.605469 358.167969 206.121094 359.433594 196.992188 357.175781 L 97.152344 329.347656 L 4.988281 334.765625 C 1.644531 334.949219 -1.15625 332.328125 -1.15625 328.984375 L -1.15625 265.734375 C -1.15625 262.574219 1.464844 259.953125 4.714844 259.953125 L 74.019531 259.953125 C 74.019531 259.953125 114.316406 235.195312 114.316406 235.195312 C 119.648438 231.941406 125.703125 230.046875 131.847656 229.683594 L 201.601562 225.257812 C 208.378906 224.894531 214.433594 229.59375 215.789062 236.371094 C 215.96875 237.273438 216.058594 238.175781 216.058594 239.082031 C 216.058594 245.40625 211.722656 251.097656 205.398438 252.542969 L 166.90625 259.410156 C 163.832031 259.953125 161.484375 262.390625 160.851562 265.464844 L 158.230469 278.835938 C 157.507812 282.632812 159.585938 286.335938 163.199219 287.78125 L 208.738281 304.589844 C 210.277344 305.128906 211.902344 305.222656 213.527344 304.679688 L 315.449219 270.976562 C 322.679688 268.808594 330.359375 272.601562 333.160156 279.648438 C 333.882812 281.457031 334.242188 283.355469 334.242188 285.160156 Z M 334.242188 285.160156 " fill-opacity="1" fill-rule="nonzero"/></svg>