<svg xmlns="http://www.w3.org/2000/svg" xmlns:xlink="http://www.w3.org/1999/xlink" width="1587" zoomAndPan="magnify" viewBox="0 0 1190.25 1683.749945" height="2245" preserveAspectRatio="xMidYMid meet" version="1.0"><defs><clipPath id="4e7426af7e"><path d="M 406.210938 551.355469 L 443.6875 551.355469 L 443.6875 591 L 406.210938 591 Z M 406.210938 551.355469 " clip-rule="nonzero"/></clipPath></defs><path fill="#e8a39c" d="M 556.976562 809.914062 C 556.976562 809.914062 553.691406 830.890625 559.804688 846.554688 C 565.914062 862.226562 554.96875 893.890625 554.875 903.140625 C 554.773438 912.386719 543.964844 935.515625 535.523438 937.230469 C 527.082031 938.941406 534.429688 916.644531 533.929688 907.183594 C 533.429688 897.71875 510.382812 933.496094 515.488281 884.910156 L 523.246094 811.078125 C 523.246094 811.078125 556.097656 809.945312 556.976562 809.914062 Z M 556.976562 809.914062 " fill-opacity="1" fill-rule="evenodd"/><path fill="#e5e7e9" d="M 369.867188 1567.105469 C 369.867188 1567.105469 354.351562 1618.71875 358.5625 1633.523438 L 362.769531 1648.324219 C 362.769531 1648.324219 524.746094 1661.605469 529.644531 1648.324219 C 534.542969 1635.039062 522.105469 1603.917969 488.945312 1602.023438 C 455.785156 1600.125 434.308594 1563.3125 434.308594 1563.3125 Z M 369.867188 1567.105469 " fill-opacity="1" fill-rule="evenodd"/><path fill="#e4f0f7" d="M 358.5625 1633.519531 L 362.769531 1648.320312 C 362.769531 1648.320312 524.746094 1661.605469 529.644531 1648.320312 C 530.890625 1644.949219 531.015625 1640.425781 529.96875 1635.523438 C 511.65625 1637.792969 457.363281 1642.332031 358.5625 1633.519531 Z M 358.5625 1633.519531 " fill-opacity="1" fill-rule="evenodd"/><path fill="#e5e7e9" d="M 351.398438 1567.105469 C 351.398438 1567.105469 349.519531 1631.242188 336.707031 1650.21875 C 323.894531 1669.195312 296.765625 1682.476562 277.921875 1676.027344 C 259.078125 1669.570312 258.699219 1636.015625 262.097656 1622.386719 C 265.484375 1608.765625 281.691406 1567.101562 281.691406 1567.101562 L 351.402344 1567.101562 Z M 351.398438 1567.105469 " fill-opacity="1" fill-rule="evenodd"/><path fill="#e4f0f7" d="M 348.683594 1603.0625 C 346.582031 1621.082031 342.9375 1640.988281 336.707031 1650.21875 C 323.890625 1669.195312 296.761719 1682.476562 277.917969 1676.027344 C 262.300781 1670.675781 259.371094 1646.710938 260.753906 1630.90625 C 265.011719 1648.648438 274.894531 1664.851562 296.746094 1665.199219 C 330.554688 1665.742188 343.765625 1626.832031 348.679688 1603.0625 Z M 348.683594 1603.0625 " fill-opacity="1" fill-rule="evenodd"/><path fill="#e4f0f7" d="M 549.109375 594.671875 C 549.109375 594.671875 547.738281 686.554688 550.414062 700.683594 C 553.089844 714.808594 562.753906 813.351562 562.753906 813.351562 L 537.71875 814.429688 L 501.300781 663.101562 L 501.964844 605.582031 C 501.964844 605.582031 548.929688 594.675781 549.113281 594.671875 Z M 549.109375 594.671875 " fill-opacity="1" fill-rule="evenodd"/><path fill="#bfdbeb" d="M 549.109375 594.671875 C 549.109375 594.671875 549.039062 599.257812 548.964844 606.527344 L 501.8125 618.457031 L 501.960938 605.578125 C 501.960938 605.578125 548.929688 594.675781 549.109375 594.671875 Z M 549.109375 594.671875 " fill-opacity="1" fill-rule="evenodd"/><path fill="#472e1f" d="M 426.214844 129.691406 C 512.074219 136.429688 487.871094 280.539062 449.304688 285.777344 C 453.96875 280.542969 463.179688 245.929688 463.453125 223.015625 C 463.636719 207.5 462.367188 197.988281 454.9375 190.390625 C 436.53125 171.578125 423.523438 154.488281 423.523438 154.488281 C 423.523438 154.488281 426.015625 129.703125 426.214844 129.691406 Z M 426.214844 129.691406 " fill-opacity="1" fill-rule="evenodd"/><path fill="#d18c84" d="M 462.5 223.8125 C 463.335938 223.214844 465.753906 218.921875 469.5625 221.203125 C 473.371094 223.488281 472.640625 238.496094 469.304688 245.746094 C 465.96875 252.996094 461.878906 250.316406 461.878906 250.316406 C 461.878906 250.316406 462.488281 223.535156 462.5 223.8125 Z M 462.5 223.8125 " fill-opacity="1" fill-rule="evenodd"/><path fill="#513b2d" d="M 369.449219 273.304688 C 369.449219 273.304688 367.949219 310.722656 361.824219 321.105469 C 355.695312 331.488281 334.835938 356.894531 333.167969 368.644531 C 331.5 380.386719 382.8125 369.617188 382.8125 369.617188 L 384.941406 281.390625 C 384.941406 281.390625 369.253906 273.316406 369.449219 273.304688 Z M 369.449219 273.304688 " fill-opacity="1" fill-rule="evenodd"/><path fill="#472e1f" d="M 432.675781 130.488281 C 464.710938 146.667969 435.363281 154.601562 430.351562 154.800781 C 417.960938 155.296875 366.742188 190.84375 360.851562 202.128906 C 357.089844 244.886719 351.496094 249.015625 367.402344 289.523438 C 367.402344 289.523438 344.195312 283.070312 332.429688 262.050781 C 299.722656 203.609375 365.980469 99.5625 432.675781 130.484375 Z M 432.675781 130.488281 " fill-opacity="1" fill-rule="evenodd"/><path fill="#f9bfb3" d="M 426.929688 306.054688 C 426.929688 306.054688 420.667969 354.566406 429.277344 361.414062 C 437.890625 368.257812 456.117188 374.125 456.117188 374.125 C 456.117188 374.125 445.773438 396.789062 397.046875 391.675781 C 348.320312 386.558594 321.5 372.476562 323.757812 372.382812 C 326.015625 372.285156 362.441406 362.777344 365.746094 342.882812 C 369.050781 322.992188 368.441406 282.097656 368.441406 282.097656 C 368.441406 282.097656 408.445312 319.351562 426.921875 306.054688 Z M 426.929688 306.054688 " fill-opacity="1" fill-rule="evenodd"/><path fill="#d18c84" d="M 426.8125 306.996094 C 426.429688 310.164062 425.214844 320.90625 424.839844 332.089844 C 407.230469 338.390625 383.878906 332.574219 368.292969 309.191406 L 368.238281 309.109375 C 368.535156 298.03125 368.5 288.144531 368.464844 284.070312 C 374.171875 288.734375 389.359375 300.46875 404.105469 305.976562 C 408.761719 307.828125 413.371094 308.972656 417.574219 308.917969 C 420.925781 308.984375 424.054688 308.414062 426.8125 306.996094 Z M 426.8125 306.996094 " fill-opacity="1" fill-rule="evenodd"/><path fill="#e4f0f7" d="M 340.871094 361.046875 C 340.871094 361.046875 318.988281 370.28125 294.605469 381.863281 L 438.695312 502.410156 C 438.695312 502.410156 455.039062 417.066406 462.679688 376.53125 C 454.199219 370.558594 447.730469 366.03125 447.730469 366.03125 C 398.261719 396.488281 340.402344 361.070312 340.867188 361.046875 Z M 340.871094 361.046875 " fill-opacity="1" fill-rule="evenodd"/><path fill="#3eb5b3" d="M 243.980469 868.277344 L 268.636719 1572.054688 C 268.636719 1572.054688 267.722656 1578.503906 295.984375 1580.023438 C 324.246094 1581.542969 362.683594 1572.429688 362.683594 1572.429688 L 370.972656 1580.195312 L 451.996094 1570.152344 L 451.996094 1533.34375 C 451.996094 1515.503906 460.285156 1468.445312 460.285156 1468.445312 C 460.285156 1468.445312 498.351562 1212.273438 498.722656 1194.054688 C 499.101562 1175.835938 519.808594 873.796875 519.808594 873.796875 L 243.976562 868.28125 Z M 243.980469 868.277344 " fill-opacity="1" fill-rule="evenodd"/><path fill="#30a19f" d="M 243.980469 868.277344 L 245.925781 923.976562 C 268.535156 928.585938 302.714844 933.574219 342.160156 932.71875 C 413.207031 931.175781 483.796875 919.015625 483.796875 919.015625 L 517.632812 905.570312 L 519.804688 873.792969 L 243.976562 868.277344 Z M 243.980469 868.277344 " fill-opacity="1" fill-rule="evenodd"/><path fill="#3eb5b3" d="M 340.871094 361.046875 C 291.011719 382.074219 230.28125 402.402344 219.285156 449.046875 C 204.90625 510.007812 185.4375 557.539062 196.378906 652.9375 C 196.378906 652.9375 232.296875 646.070312 253.054688 637.574219 L 273.816406 629.078125 L 240.285156 834.136719 L 217.136719 892.875 C 217.136719 892.875 271.121094 910.300781 342.164062 908.757812 C 413.207031 907.210938 483.796875 895.050781 483.796875 895.050781 L 556.214844 866.28125 L 514.855469 674.152344 L 518.570312 601.8125 L 561.199219 593.140625 L 526.113281 424.476562 C 526.113281 424.476562 507.234375 408.289062 491.277344 396.820312 C 475.332031 385.351562 447.726562 366.027344 447.726562 366.027344 L 418.675781 463.386719 C 418.675781 463.386719 340.394531 361.066406 340.863281 361.046875 Z M 340.871094 361.046875 " fill-opacity="1" fill-rule="evenodd"/><path fill="#30a19f" d="M 519.183594 601.691406 L 535.71875 598.324219 C 533.503906 592.675781 530.660156 582.960938 527.902344 566.460938 C 522.140625 531.976562 553.136719 554.335938 522.105469 431.726562 C 522.105469 431.726562 516.679688 522.921875 514.644531 542.941406 C 512.613281 562.960938 516.160156 596.425781 516.160156 596.425781 Z M 519.183594 601.691406 " fill-opacity="1" fill-rule="evenodd"/><path fill="#30a19f" d="M 246.207031 797.945312 L 240.285156 834.136719 L 227.582031 866.367188 C 249.226562 874.746094 281.453125 882.914062 328.210938 886.148438 C 439.285156 893.824219 519.933594 828.144531 514.644531 809.703125 C 509.359375 791.261719 446.015625 846.027344 368.441406 866.683594 C 290.867188 887.34375 265.882812 853.875 272.972656 853.875 C 280.066406 853.875 362.769531 841.046875 381.691406 832.34375 C 400.613281 823.632812 347.53125 828.609375 294.605469 823.632812 C 272.441406 821.550781 256.847656 810.308594 246.207031 797.945312 Z M 246.207031 797.945312 " fill-opacity="1" fill-rule="evenodd"/><path fill="#30a19f" d="M 239.632812 642.292969 C 244.433594 640.808594 249.03125 639.222656 253.058594 637.574219 L 273.816406 629.078125 L 258.292969 724.015625 C 276.484375 722.398438 294.417969 720.378906 305.359375 718.0625 C 334.730469 711.839844 432.933594 701.863281 432.933594 701.863281 C 432.933594 701.863281 430.460938 687.730469 439.105469 687.730469 C 447.75 687.730469 475.230469 712.398438 493.144531 708.023438 C 505.679688 704.964844 513.070312 690.851562 516.164062 680.199219 L 514.863281 674.144531 L 516.117188 649.660156 C 516.082031 649.660156 336.664062 643.980469 325.9375 640.183594 C 315.203125 636.386719 300.851562 630.136719 305.359375 623.042969 C 309.875 615.949219 308.355469 599.902344 315.203125 569.445312 C 322.050781 538.988281 283.335938 466.71875 279.375 468.882812 C 275.414062 471.046875 293.960938 524.140625 299.128906 554.433594 C 304.300781 584.730469 306.117188 610.5 302.582031 611.273438 C 291.316406 613.757812 284.484375 617.265625 275.136719 620.535156 L 239.632812 642.289062 Z M 239.632812 642.292969 " fill-opacity="1" fill-rule="evenodd"/><path fill="#bed6fa" d="M 514.644531 542.941406 L 347.371094 525.703125 L 322.046875 774.886719 L 489.324219 792.125 Z M 514.644531 542.941406 " fill-opacity="1" fill-rule="evenodd"/><path fill="#a9c7f5" d="M 335.597656 641.546875 L 328.210938 714.234375 C 368.289062 708.433594 432.929688 701.867188 432.929688 701.867188 C 432.929688 701.867188 430.460938 687.734375 439.105469 687.734375 C 447.75 687.734375 475.230469 712.402344 493.144531 708.03125 C 494.878906 707.605469 496.519531 706.972656 498.058594 706.160156 L 503.84375 649.265625 C 468.679688 648.085938 367.972656 644.542969 335.597656 641.542969 Z M 335.597656 641.546875 " fill-opacity="1" fill-rule="evenodd"/><path fill="#f9bfb3" d="M 462.671875 196.195312 C 462.671875 196.195312 470.121094 233.992188 460.59375 263.246094 C 451.070312 292.5 443.261719 306.488281 425.503906 313.667969 C 407.746094 320.84375 383.507812 315.367188 367.484375 291.324219 C 351.460938 267.28125 349.289062 254.867188 349.289062 254.867188 C 349.289062 254.867188 340.164062 259.667969 333.523438 250.53125 C 326.882812 241.402344 321.792969 226.792969 327.800781 224.082031 C 333.804688 221.367188 340.332031 221.105469 344.234375 227.40625 C 348.132812 233.707031 349.949219 247.117188 353.800781 252.28125 C 357.648438 257.445312 353.976562 247.335938 355.203125 234.558594 C 356.433594 221.785156 360.953125 201.660156 360.953125 201.660156 C 360.953125 201.660156 372.378906 183.71875 392.550781 171.886719 C 412.71875 160.054688 428.734375 154.28125 428.734375 154.28125 C 428.734375 154.28125 455.414062 182.335938 462.667969 196.195312 Z M 462.671875 196.195312 " fill-opacity="1" fill-rule="evenodd"/><path fill="#ad6c64" d="M 414.972656 223.015625 C 414.96875 223.0625 413.46875 240.664062 420.304688 248.363281 C 421.671875 249.898438 423.078125 251.261719 424.347656 252.496094 C 425.722656 253.835938 426.9375 255.019531 427.710938 256.054688 C 428.953125 257.722656 428.839844 259.242188 425.578125 261.417969 C 418.480469 266.152344 417.039062 265.121094 417.035156 265.121094 L 414.839844 267.847656 C 414.839844 267.847656 418.402344 270.410156 427.667969 264.226562 C 433.300781 260.476562 433.257812 257.53125 430.679688 254.082031 C 429.734375 252.8125 428.429688 251.546875 426.957031 250.113281 L 426.949219 250.113281 C 425.75 248.945312 424.421875 247.648438 423.089844 246.152344 C 417.226562 239.550781 418.601562 223.320312 418.605469 223.273438 L 414.976562 223.015625 Z M 414.972656 223.015625 " fill-opacity="1" fill-rule="nonzero"/><path fill="#ad6c64" d="M 433.300781 277.351562 C 433.230469 277.382812 409.800781 289.847656 395.203125 275.304688 L 392.5625 277.675781 C 409.101562 294.160156 434.984375 280.386719 435.058594 280.347656 Z M 433.300781 277.351562 " fill-opacity="1" fill-rule="nonzero"/><path fill="#34281a" d="M 439.390625 211.902344 C 436.566406 211.832031 434.179688 215.300781 434.0625 219.652344 C 433.945312 224 436.140625 227.578125 438.96875 227.648438 C 441.792969 227.714844 444.179688 224.246094 444.296875 219.898438 C 444.414062 215.550781 442.214844 211.972656 439.386719 211.90625 Z M 439.390625 211.902344 " fill-opacity="1" fill-rule="evenodd"/><path fill="#34281a" d="M 389.015625 210.695312 C 386.191406 210.625 383.804688 214.09375 383.683594 218.441406 C 383.570312 222.789062 385.765625 226.371094 388.59375 226.4375 C 391.421875 226.503906 393.808594 223.035156 393.921875 218.6875 C 394.039062 214.339844 391.84375 210.761719 389.015625 210.691406 Z M 389.015625 210.695312 " fill-opacity="1" fill-rule="evenodd"/><path fill="#513b2d" d="M 405.109375 205.503906 C 405.066406 205.457031 388.835938 189.179688 371.25 206.722656 L 375.652344 210.652344 C 388.824219 197.511719 400.730469 209.460938 400.757812 209.488281 L 405.109375 205.5 Z M 454.9375 203.488281 C 454.890625 203.441406 438.664062 187.164062 421.074219 204.710938 L 425.476562 208.636719 C 438.644531 195.496094 450.546875 207.445312 450.582031 207.476562 Z M 454.9375 203.488281 " fill-opacity="1" fill-rule="nonzero"/><path fill="#ad6c64" d="M 331.6875 228.769531 C 331.6875 228.769531 325.765625 232.1875 329.855469 234.921875 C 333.949219 237.652344 333.257812 231.265625 336.425781 233.5625 C 339.597656 235.855469 341.0625 242.824219 338.976562 243.289062 C 336.890625 243.75 335.910156 249.871094 341.023438 250.707031 C 346.132812 251.546875 342.984375 246.355469 345.476562 247.015625 C 347.96875 247.675781 349.09375 238.84375 342.707031 232.40625 C 336.316406 225.96875 331.589844 228.773438 331.691406 228.769531 Z M 331.6875 228.769531 " fill-opacity="1" fill-rule="nonzero"/><path fill="#30a19f" d="M 349.695312 357.011719 L 422.289062 458.582031 L 412.21875 468.890625 L 334.59375 363.738281 C 334.59375 363.738281 350.445312 356.976562 349.695312 357.011719 Z M 349.695312 357.011719 " fill-opacity="1" fill-rule="evenodd"/><path fill="#54ccca" d="M 441.25 364.90625 L 411.683594 468.164062 L 421.28125 478.96875 L 455.996094 370.113281 Z M 441.25 364.90625 " fill-opacity="1" fill-rule="evenodd"/><path fill="#e4f0f7" d="M 201.480469 651.902344 C 201.480469 651.902344 200.222656 692.371094 205.097656 700.515625 C 209.96875 708.667969 427.019531 677.273438 427.019531 677.273438 L 424.617188 620.777344 C 424.617188 620.777344 284.835938 633.265625 279.191406 633.507812 C 273.542969 633.75 275.136719 620.542969 275.136719 620.542969 C 275.136719 620.542969 202.339844 651.617188 201.480469 651.902344 Z M 201.480469 651.902344 " fill-opacity="1" fill-rule="evenodd"/><path fill="#bfdbeb" d="M 201.480469 651.902344 C 201.480469 655.9375 201.335938 660.023438 201.335938 664.085938 L 201.335938 664.207031 L 201.339844 664.421875 C 244.6875 646.308594 265.46875 635.101562 275.289062 628.871094 C 274.804688 626.339844 274.910156 623.40625 275.023438 621.785156 C 275.054688 621.070312 275.117188 620.65625 275.132812 620.566406 L 275.132812 620.546875 C 275.132812 620.546875 201.925781 651.71875 201.476562 651.910156 Z M 201.480469 651.902344 " fill-opacity="1" fill-rule="evenodd"/><path fill="#54ccca" d="M 496.695312 786.882812 C 496.5 787.179688 430.039062 890.804688 285.617188 876.246094 L 285.28125 879.664062 C 431.773438 894.433594 499.347656 789.082031 499.542969 788.78125 Z M 370.117188 816.339844 C 369.875 816.328125 284.378906 812.5625 282.449219 767.121094 L 279.03125 767.269531 C 281.097656 815.859375 369.707031 819.753906 369.953125 819.765625 L 370.121094 816.339844 Z M 370.117188 816.339844 " fill-opacity="1" fill-rule="nonzero"/><path fill="#a9c7f5" d="M 406.769531 539 C 402.714844 539.175781 399.570312 542.628906 399.742188 546.710938 C 399.917969 550.796875 403.34375 553.960938 407.398438 553.789062 C 411.449219 553.613281 414.601562 550.160156 414.425781 546.078125 C 414.25 541.996094 410.824219 538.824219 406.769531 539 Z M 465.042969 545.984375 C 460.984375 546.160156 457.839844 549.613281 458.011719 553.695312 C 458.1875 557.777344 461.613281 560.945312 465.667969 560.769531 C 469.722656 560.597656 472.867188 557.144531 472.695312 553.0625 C 472.519531 548.980469 469.09375 545.8125 465.039062 545.984375 Z M 465.042969 545.984375 " fill-opacity="1" fill-rule="evenodd"/><path fill="#54ccca" d="M 528.933594 470.128906 L 524.523438 535.035156 L 527.925781 535.265625 L 532.339844 470.359375 Z M 233.234375 428.917969 C 233.375 428.980469 282.492188 451.167969 297.398438 554.691406 L 300.859375 554.195312 C 285.675781 448.777344 234.859375 425.800781 234.710938 425.734375 Z M 271.898438 526.28125 C 271.863281 526.179688 260.261719 491.582031 224.078125 465.164062 L 222.085938 467.941406 C 257.371094 493.707031 268.636719 527.308594 268.667969 527.40625 Z M 281.183594 566.695312 C 281.128906 566.574219 261.410156 524.625 225.648438 517.945312 L 225.027344 521.324219 C 259.074219 527.679688 278.046875 568.058594 278.105469 568.171875 Z M 327.523438 455.046875 C 327.476562 455.125 311.675781 482.121094 306.617188 534.226562 L 310.011719 534.554688 C 315 483.191406 330.425781 456.84375 330.46875 456.769531 L 327.519531 455.050781 Z M 376.285156 475.785156 C 376.175781 475.925781 337.636719 524.878906 320.847656 584.835938 L 324.136719 585.761719 C 340.734375 526.472656 378.859375 478.042969 378.964844 477.902344 Z M 472.464844 419.605469 C 472.539062 419.761719 497.679688 473.597656 492.941406 505.917969 L 496.316406 506.417969 C 501.203125 473.078125 475.628906 418.324219 475.558594 418.167969 Z M 514.566406 434.234375 L 519.164062 542.292969 L 522.578125 542.148438 L 517.980469 434.085938 Z M 514.566406 434.234375 " fill-opacity="1" fill-rule="nonzero"/><path fill="#30a19f" d="M 362.769531 1572.507812 L 370.976562 1580.195312 L 388.984375 1577.964844 C 397.652344 1537.753906 422.761719 1418.164062 425.253906 1370.523438 C 428.269531 1312.839844 461.4375 1155.71875 443.34375 1084.367188 C 425.253906 1013.019531 413.953125 956.855469 413.566406 956.855469 C 413.566406 956.855469 413.566406 1149.445312 408.289062 1186.839844 C 403.015625 1224.238281 379.070312 1499.558594 379.070312 1499.558594 Z M 452 1532.628906 C 452.210938 1514.285156 460.285156 1468.449219 460.285156 1468.449219 L 461.355469 1461.261719 C 444.441406 1481.605469 424.160156 1507.925781 419.789062 1524.421875 C 413.613281 1547.71875 431.023438 1528.039062 452.003906 1532.632812 Z M 254.882812 1179.515625 L 268.484375 1567.714844 C 285.226562 1567.777344 306.691406 1564.578125 328.378906 1552.382812 C 374.882812 1526.222656 305.925781 1513.847656 299.984375 1513.847656 C 294.046875 1513.847656 299.984375 1465.332031 288.238281 1442.320312 C 276.492188 1419.300781 283.296875 1380.117188 291.328125 1348.394531 C 299.355469 1316.675781 305.929688 1321.648438 291.328125 1291.796875 C 282.585938 1273.925781 267.347656 1220.628906 254.886719 1179.511719 Z M 254.882812 1179.515625 " fill-opacity="1" fill-rule="evenodd"/><path fill="#54ccca" d="M 462.796875 1308.996094 C 462.667969 1309.523438 417.4375 1491.878906 381.203125 1508.234375 L 382.589844 1511.363281 C 420.367188 1494.320312 465.980469 1310.359375 466.113281 1309.832031 L 462.800781 1308.996094 Z M 361.128906 1386.382812 C 361.011719 1386.816406 320.347656 1536.992188 290.472656 1549.191406 L 291.753906 1552.378906 C 323.195312 1539.53125 364.292969 1387.71875 364.414062 1387.28125 L 361.128906 1386.378906 Z M 363.921875 1330.914062 C 363.679688 1330.6875 278.53125 1253.902344 262.140625 1127.023438 L 258.761719 1127.46875 C 275.316406 1255.617188 361.378906 1333.226562 361.625 1333.453125 Z M 268.460938 1047.210938 C 268.597656 1047.777344 318.324219 1243.925781 361.902344 1270 L 363.640625 1267.039062 C 321.28125 1241.691406 271.898438 1046.929688 271.753906 1046.363281 Z M 376.140625 932.011719 C 376.140625 931.089844 375.882812 930.414062 375.367188 929.964844 C 373.730469 928.53125 370.960938 931.351562 367.554688 937.390625 C 364.777344 942.324219 361.121094 949.546875 357.035156 958.234375 C 337.390625 999.996094 307.476562 1076.179688 314.828125 1097.453125 L 318.046875 1096.320312 C 311.035156 1076.050781 340.699219 1000.984375 360.117188 959.703125 C 364.183594 951.0625 367.792969 943.921875 370.519531 939.082031 C 373.644531 933.542969 373.980469 933.695312 376.140625 932.015625 Z M 462.804688 919.390625 C 462.914062 919.816406 500.460938 1066.535156 493.460938 1096.496094 L 496.785156 1097.277344 C 503.972656 1066.515625 466.210938 918.96875 466.101562 918.542969 Z M 462.804688 919.390625 " fill-opacity="1" fill-rule="nonzero"/><path fill="#f9bfb3" d="M 424.859375 626.449219 C 432.828125 625.785156 440.691406 624.449219 451.707031 612.695312 C 462.71875 600.945312 477.15625 586.792969 480.667969 586.640625 C 484.179688 586.492188 486.167969 595.589844 483.746094 598.914062 C 481.324219 602.242188 471.324219 607.664062 471.5 611.84375 C 471.675781 616.027344 472.257812 622.121094 475.457031 622.140625 C 478.65625 622.167969 485.589844 623.480469 494.257812 620.363281 C 502.921875 617.253906 510.414062 605.328125 513.011719 610.050781 C 515.609375 614.773438 514.972656 626.074219 512.019531 631.84375 C 509.0625 637.609375 513.976562 644 511.984375 649.890625 C 509.996094 655.773438 509.757812 661.417969 509.480469 666.265625 C 509.207031 671.109375 501.589844 683.84375 499.089844 685.242188 C 496.589844 686.636719 482.671875 686.589844 466.234375 679.890625 C 449.796875 673.191406 426.675781 669.203125 426.675781 669.203125 C 426.675781 669.203125 424.851562 626.289062 424.855469 626.449219 Z M 424.859375 626.449219 " fill-opacity="1" fill-rule="evenodd"/><path fill="#e8a39c" d="M 424.859375 626.449219 C 427.492188 626.234375 430.121094 625.933594 432.847656 625.21875 L 435.316406 670.914062 C 430.132812 669.796875 426.679688 669.203125 426.679688 669.203125 C 426.679688 669.203125 424.855469 626.289062 424.859375 626.449219 Z M 424.859375 626.449219 " fill-opacity="1" fill-rule="evenodd"/><path fill="#54ccca" d="M 280.605469 618.523438 L 305.359375 610.667969 L 305.320312 609.210938 C 305.320312 609.085938 303.957031 564.824219 301.78125 557.539062 L 298.429688 558.542969 C 300.273438 564.707031 301.539062 600.195312 301.785156 607.851562 L 279.863281 615.078125 L 280.601562 618.519531 Z M 280.605469 618.523438 " fill-opacity="1" fill-rule="nonzero"/><path fill="#384b5e" d="M 425.640625 352.53125 C 431.988281 355.199219 438.234375 358.703125 442.527344 362.8125 C 452.347656 372.207031 457.34375 385.015625 459.117188 398.851562 C 460.941406 413.035156 459.394531 428.332031 456.167969 442.265625 C 451.539062 462.25 443.59375 479.167969 437.222656 485.921875 L 443.285156 491.726562 C 450.515625 484.058594 459.371094 465.578125 464.324219 444.175781 C 467.742188 429.402344 469.371094 413.09375 467.402344 397.796875 C 465.394531 382.152344 459.648438 367.582031 448.292969 356.714844 C 441.816406 350.515625 435.152344 346.074219 424.800781 342.875 C 424.800781 345.585938 425.175781 349.601562 425.644531 352.535156 Z M 425.640625 352.53125 " fill-opacity="1" fill-rule="nonzero"/><path fill="#b2babb" d="M 434.515625 480.347656 C 422.746094 480.347656 413.207031 489.953125 413.207031 501.8125 C 413.207031 513.667969 422.75 523.277344 434.515625 523.277344 C 446.285156 523.277344 455.828125 513.664062 455.828125 501.8125 C 455.828125 489.960938 446.285156 480.347656 434.515625 480.347656 Z M 434.515625 480.347656 " fill-opacity="1" fill-rule="evenodd"/><path fill="#f2f3f4" d="M 434.515625 483.054688 C 424.230469 483.054688 415.894531 491.453125 415.894531 501.816406 C 415.894531 512.175781 424.230469 520.570312 434.515625 520.570312 C 444.800781 520.570312 453.140625 512.171875 453.140625 501.816406 C 453.140625 491.457031 444.800781 483.054688 434.515625 483.054688 Z M 434.515625 483.054688 " fill-opacity="1" fill-rule="evenodd"/><path fill="#b2babb" d="M 434.515625 490.234375 C 428.167969 490.234375 423.023438 495.414062 423.023438 501.8125 C 423.023438 508.207031 428.167969 513.386719 434.515625 513.386719 C 440.863281 513.386719 446.015625 508.207031 446.015625 501.8125 C 446.015625 495.417969 440.867188 490.234375 434.515625 490.234375 Z M 434.515625 490.234375 " fill-opacity="1" fill-rule="evenodd"/><path fill="#384b5e" d="M 366.929688 333.355469 C 345.445312 338.777344 311.285156 360.980469 319.269531 449.042969 L 328.300781 448.21875 C 325.726562 419.847656 328.191406 354.390625 366.011719 341.210938 C 366.246094 339.554688 366.558594 338.34375 366.929688 333.351562 Z M 366.929688 333.355469 " fill-opacity="1" fill-rule="nonzero"/><path fill="#b2babb" d="M 350.089844 487.589844 C 350.132812 487.804688 364.296875 561.519531 360.917969 576.667969 C 357.96875 589.875 351.410156 586.277344 351.394531 586.273438 L 349.84375 589.589844 C 349.871094 589.601562 360.484375 595.285156 364.460938 577.464844 C 368.003906 561.589844 353.6875 487.101562 353.648438 486.886719 L 350.09375 487.589844 Z M 350.089844 487.589844 " fill-opacity="1" fill-rule="nonzero"/><path fill="#b2babb" d="M 315.203125 500.25 C 318.140625 508.410156 331.820312 541.003906 347.195312 562.769531 C 352.53125 570.328125 358.109375 576.621094 363.5625 580.21875 C 369.449219 584.109375 375.226562 584.957031 380.5 581.1875 C 383.015625 579.382812 385.359375 576.515625 387.472656 572.414062 L 384.246094 570.722656 C 382.40625 574.300781 380.445312 576.742188 378.40625 578.203125 C 374.5625 580.957031 370.15625 580.203125 365.554688 577.164062 C 360.511719 573.839844 355.253906 567.875 350.160156 560.664062 C 335.023438 539.234375 321.523438 507.054688 318.621094 498.992188 Z M 315.203125 500.25 " fill-opacity="1" fill-rule="nonzero"/><path fill="#2c3b4a" d="M 356.390625 489.6875 C 356.390625 489.632812 356.636719 469.902344 348.257812 455.886719 C 343.269531 447.539062 337.003906 443.140625 330.847656 441.953125 L 330.828125 441.953125 C 327.046875 441.222656 323.316406 441.710938 319.933594 443.25 C 316.628906 444.75 313.707031 447.242188 311.4375 450.5625 C 307 457.027344 304.980469 466.742188 307.59375 478.378906 C 310.277344 490.316406 315.472656 504.492188 315.492188 504.53125 L 322.277344 501.902344 C 322.265625 501.867188 317.21875 488.101562 314.667969 476.757812 C 312.542969 467.324219 314.03125 459.664062 317.410156 454.734375 C 318.941406 452.5 320.847656 450.855469 322.9375 449.902344 C 324.949219 448.992188 327.191406 448.703125 329.484375 449.144531 C 333.738281 449.96875 338.234375 453.285156 342.050781 459.675781 C 349.34375 471.878906 349.140625 489.738281 349.140625 489.785156 L 356.390625 489.691406 Z M 356.390625 489.6875 " fill-opacity="1" fill-rule="nonzero"/><path fill="#ffffff" d="M 349.96875 582.753906 C 346.484375 580.828125 343.121094 582.105469 342.199219 584.734375 C 341.273438 587.363281 340.078125 589.773438 342.476562 591.742188 C 346.800781 595.300781 360.800781 588.738281 349.96875 582.753906 Z M 349.96875 582.753906 " fill-opacity="1" fill-rule="evenodd"/><path fill="#ffffff" d="M 382.433594 575.03125 C 382.433594 575.03125 380.421875 569.664062 383.023438 565.746094 C 387.359375 559.195312 395.824219 565.210938 392.496094 570.925781 C 390.285156 574.714844 384.113281 577.605469 382.4375 575.03125 Z M 382.433594 575.03125 " fill-opacity="1" fill-rule="evenodd"/><path fill="#ffffff" d="M 439.179688 218.246094 C 438.308594 218.246094 437.601562 218.914062 437.601562 219.738281 C 437.601562 220.558594 438.308594 221.230469 439.179688 221.230469 C 440.050781 221.230469 440.757812 220.5625 440.757812 219.738281 C 440.757812 218.910156 440.050781 218.246094 439.179688 218.246094 Z M 439.179688 218.246094 " fill-opacity="1" fill-rule="evenodd"/><path fill="#ffffff" d="M 389.476562 218.246094 C 388.605469 218.246094 387.898438 218.914062 387.898438 219.738281 C 387.898438 220.558594 388.605469 221.230469 389.476562 221.230469 C 390.34375 221.230469 391.054688 220.5625 391.054688 219.738281 C 391.054688 218.910156 390.347656 218.246094 389.476562 218.246094 Z M 389.476562 218.246094 " fill-opacity="1" fill-rule="evenodd"/><path fill="#bfdbeb" d="M 398.53125 635.03125 C 398.386719 635.171875 348.738281 684.207031 238.480469 684.207031 L 238.480469 687.734375 C 350.144531 687.734375 400.792969 637.722656 400.941406 637.578125 L 398.535156 635.03125 Z M 398.53125 635.03125 " fill-opacity="1" fill-rule="nonzero"/><path fill="#bfdbeb" d="M 271.734375 636.394531 C 271.632812 636.433594 236.359375 649.996094 219.511719 685.210938 L 222.65625 686.738281 C 238.898438 652.785156 272.878906 639.722656 272.976562 639.683594 Z M 271.734375 636.394531 " fill-opacity="1" fill-rule="nonzero"/><path fill="#bfdbeb" d="M 529.1875 641.546875 C 529.164062 641.6875 520.089844 691.632812 541.777344 741.148438 L 544.976562 739.726562 C 523.714844 691.1875 532.59375 642.304688 532.621094 642.164062 Z M 529.1875 641.546875 " fill-opacity="1" fill-rule="nonzero"/><path fill="#85573a" d="M 430.78125 132.933594 C 430.78125 132.96875 430.625 145.617188 428.222656 150.898438 L 431.644531 152.292969 C 434.339844 146.378906 434.515625 132.96875 434.515625 132.933594 Z M 430.78125 132.933594 " fill-opacity="1" fill-rule="nonzero"/><path fill="#fafbff" d="M 788.269531 1673.730469 C 787.183594 1673.730469 786.304688 1674.613281 786.304688 1675.703125 C 786.304688 1676.796875 787.1875 1677.683594 788.269531 1677.683594 C 789.351562 1677.683594 790.230469 1676.796875 790.230469 1675.703125 C 790.230469 1674.613281 789.351562 1673.730469 788.269531 1673.730469 Z M 788.269531 1673.730469 " fill-opacity="1" fill-rule="evenodd"/><path fill="#fafbff" d="M 743.171875 1673.730469 C 742.085938 1673.730469 741.207031 1674.613281 741.207031 1675.703125 C 741.207031 1676.796875 742.085938 1677.683594 743.171875 1677.683594 C 744.257812 1677.683594 745.132812 1676.796875 745.132812 1675.703125 C 745.132812 1674.613281 744.253906 1673.730469 743.171875 1673.730469 Z M 743.171875 1673.730469 " fill-opacity="1" fill-rule="evenodd"/><path fill="#f9bfb3" d="M 766.492188 242.828125 C 766.492188 242.828125 770.34375 274.605469 760.832031 295.308594 C 758.082031 301.292969 754.214844 306.359375 748.8125 309.457031 C 724.734375 323.289062 835.632812 385.917969 835.632812 385.917969 L 872.644531 316.6875 L 871.742188 313.277344 C 871.742188 313.277344 847.628906 313.101562 840.851562 291.613281 L 840.75 291.269531 C 839.039062 270.898438 842.972656 259.089844 842.972656 259.089844 C 842.972656 259.089844 841.523438 259.640625 838.992188 260.234375 C 840.226562 250.167969 842.484375 242.824219 842.484375 242.824219 L 784.953125 242.824219 C 782.527344 240.226562 780.136719 237.292969 777.824219 233.976562 C 774.988281 234.449219 772.34375 235.054688 769.917969 235.804688 C 770 238.019531 770.078125 240.375 770.121094 242.828125 Z M 766.492188 242.828125 " fill-opacity="1" fill-rule="evenodd"/><path fill="#e8a597" d="M 766.492188 242.828125 C 766.492188 242.828125 768.882812 262.550781 765.242188 281.046875 C 784.804688 292.574219 812.246094 303.019531 847.109375 302.609375 C 844.507812 299.765625 842.289062 296.171875 840.851562 291.613281 L 840.75 291.269531 C 839.039062 270.902344 842.972656 259.089844 842.972656 259.089844 C 842.972656 259.089844 841.523438 259.644531 838.992188 260.234375 C 840.226562 250.167969 842.484375 242.828125 842.484375 242.828125 L 784.953125 242.828125 C 782.527344 240.230469 780.136719 237.296875 777.824219 233.980469 C 774.988281 234.453125 772.34375 235.058594 769.917969 235.804688 C 770 238.019531 770.078125 240.375 770.121094 242.828125 Z M 766.492188 242.828125 " fill-opacity="1" fill-rule="evenodd"/><path fill="#1b2631" d="M 816.742188 1584.671875 C 816.742188 1584.671875 815.296875 1599.601562 812.765625 1624.359375 C 810.234375 1649.117188 816.742188 1673.875 816.742188 1673.875 L 871.332031 1673.875 C 871.332031 1673.875 873.140625 1663.316406 880.371094 1664.042969 C 887.601562 1664.773438 913.988281 1677.152344 937.492188 1677.515625 C 960.992188 1677.878906 990.273438 1677.515625 990.273438 1677.515625 C 990.273438 1677.515625 1011.242188 1652.394531 986.300781 1634.917969 C 961.355469 1617.4375 952.316406 1632.367188 924.117188 1614.527344 C 895.917969 1596.6875 897.003906 1584.671875 897.003906 1584.671875 Z M 816.742188 1584.671875 " fill-opacity="1" fill-rule="evenodd"/><path fill="#1b2631" d="M 762.75 1585.75 C 762.75 1585.75 762.15625 1612.710938 775.53125 1625.453125 C 788.90625 1638.195312 793.96875 1661.335938 789.988281 1669.507812 C 786.011719 1677.683594 785.648438 1677.683594 785.648438 1677.683594 L 675.386719 1677.683594 C 675.386719 1677.683594 660.585938 1670.035156 665.988281 1631.175781 C 671.390625 1592.320312 676.835938 1584.675781 676.835938 1584.675781 Z M 762.75 1585.75 " fill-opacity="1" fill-rule="evenodd"/><path fill="#29235c" d="M 665.96875 1592.316406 L 769.363281 1592.316406 L 789.730469 1015.308594 L 808.507812 1014.1875 L 805.519531 1592.316406 L 906.746094 1592.316406 L 934.648438 836.234375 L 644.675781 836.234375 C 663.269531 1096.570312 670.726562 1327.789062 665.964844 1592.316406 Z M 665.96875 1592.316406 " fill-opacity="1" fill-rule="evenodd"/><path fill="#171052" d="M 787.761719 1071.167969 L 789.730469 1015.308594 L 808.507812 1014.1875 L 808.4375 1027.320312 L 862.070312 1027.320312 L 870.023438 1071.738281 C 870.023438 1071.738281 909.1875 1051.992188 926.929688 1045.398438 L 934.648438 836.238281 L 644.675781 836.238281 C 650.003906 910.875 654.421875 983.113281 657.890625 1054.433594 L 787.761719 1071.171875 Z M 787.761719 1071.167969 " fill-opacity="1" fill-rule="evenodd"/><path fill="#b7ddf7" d="M 739.101562 304.078125 C 784.3125 320.925781 820.511719 334.109375 869.398438 311.371094 L 913.4375 400.234375 L 939.632812 838.03125 L 644.679688 836.230469 L 669.050781 361.84375 Z M 739.101562 304.078125 " fill-opacity="1" fill-rule="evenodd"/><path fill="#f2f3f4" d="M 845.324219 362.695312 L 893.082031 1043.28125 L 963.929688 996.675781 L 945.488281 617.300781 C 945.488281 617.300781 1074.554688 639.511719 1023.21875 526.28125 C 979.792969 407.390625 974.660156 363.769531 871.742188 313.277344 C 871.742188 313.277344 845.332031 362.808594 845.324219 362.695312 Z M 845.324219 362.695312 " fill-opacity="1" fill-rule="evenodd"/><path fill="#e5e7e9" d="M 859.425781 563.601562 L 861.136719 588 C 866.738281 591.652344 875.289062 598.332031 876.316406 600.5625 C 877.75 603.691406 888.808594 606.101562 904.058594 614.351562 C 913.863281 619.65625 933.414062 626.261719 946.121094 630.300781 L 945.492188 617.300781 C 945.492188 617.300781 946.773438 617.515625 949.003906 617.800781 L 892.082031 590.816406 L 895.65625 574.441406 L 864.269531 562.632812 L 859.421875 563.601562 Z M 859.425781 563.601562 " fill-opacity="1" fill-rule="evenodd"/><path fill="#f2f3f4" d="M 741.679688 301.949219 C 741.679688 301.949219 663.734375 327.765625 641.0625 344.582031 C 585.34375 385.910156 633.824219 466.199219 633.566406 471.929688 L 608.476562 1027.804688 L 814.59375 1047.277344 L 829.28125 569.597656 L 911.511719 552.507812 L 880.757812 485.5 L 830.363281 493.046875 L 741.675781 301.953125 Z M 741.679688 301.949219 " fill-opacity="1" fill-rule="evenodd"/><path fill="#e5e7e9" d="M 716.175781 428.574219 L 740.003906 483.160156 C 740.003906 483.160156 770.632812 477.882812 780.421875 481.492188 L 790.21875 485.101562 C 790.21875 485.101562 746.507812 436.507812 716.175781 428.574219 Z M 716.175781 428.574219 " fill-opacity="1" fill-rule="evenodd"/><path fill="#e5e7e9" d="M 632.714844 469.039062 C 633.273438 470.464844 633.589844 471.460938 633.566406 471.929688 L 630.546875 538.769531 C 641.546875 567.511719 654.078125 598.15625 661.585938 609.773438 C 677.246094 633.992188 801.3125 598.152344 807.765625 595.195312 C 810.496094 593.941406 819.273438 592.027344 828.644531 590.222656 L 829.28125 569.597656 L 833.9375 568.625 C 787.378906 577.730469 702.425781 593.902344 690.847656 592.980469 C 674.78125 591.699219 656.097656 535.847656 653.230469 525.027344 C 650.363281 514.195312 632.71875 469.03125 632.71875 469.03125 Z M 632.714844 469.039062 " fill-opacity="1" fill-rule="evenodd"/><path fill="#384b5e" d="M 769.480469 791.117188 C 769.488281 790.996094 773.695312 747.035156 746.777344 730.855469 C 740.964844 727.363281 734.867188 726.101562 728.886719 726.722656 C 722.453125 727.394531 716.21875 730.265625 710.691406 734.890625 C 705.308594 739.394531 700.570312 745.570312 696.960938 753.003906 C 691.472656 764.316406 688.53125 778.644531 689.871094 794.484375 L 699.789062 793.445312 C 698.644531 779.9375 701.117188 767.789062 705.746094 758.257812 C 708.671875 752.230469 712.441406 747.285156 716.667969 743.75 C 720.742188 740.332031 725.242188 738.230469 729.789062 737.757812 C 733.851562 737.332031 738.03125 738.210938 742.050781 740.625 C 763.054688 753.25 759.570312 789.972656 759.5625 790.074219 Z M 769.480469 791.117188 " fill-opacity="1" fill-rule="nonzero"/><path fill="#b2babb" d="M 716.292969 752.304688 C 716.265625 752.066406 707.5 669.136719 682.65625 653.539062 C 658.582031 638.429688 643.5625 659.332031 643.519531 659.386719 L 640.265625 656.988281 C 640.3125 656.921875 657.519531 632.972656 684.792969 650.09375 C 711.300781 666.730469 720.277344 751.636719 720.304688 751.878906 L 716.296875 752.304688 Z M 716.292969 752.304688 " fill-opacity="1" fill-rule="nonzero"/><path fill="#e5e7e9" d="M 648.570312 659.183594 C 648.316406 658.4375 640.785156 651.46875 640.785156 651.46875 C 625.726562 661.109375 637.152344 675.769531 648.570312 659.183594 Z M 648.570312 659.183594 " fill-opacity="1" fill-rule="evenodd"/><path fill="#b2babb" d="M 649.039062 765.847656 C 649.003906 765.609375 637.433594 681.035156 659.191406 658.457031 C 681.566406 635.238281 703.976562 654.300781 704.042969 654.351562 L 701.480469 657.480469 C 701.425781 657.433594 681.84375 640.777344 662.082031 661.285156 C 641.703125 682.433594 653.003906 765.0625 653.035156 765.304688 L 649.042969 765.847656 Z M 649.039062 765.847656 " fill-opacity="1" fill-rule="nonzero"/><path fill="#e5e7e9" d="M 696.671875 658.53125 C 696.59375 657.757812 700.46875 648.347656 700.46875 648.347656 C 717.96875 650.683594 713.773438 668.632812 696.671875 658.53125 Z M 696.671875 658.53125 " fill-opacity="1" fill-rule="evenodd"/><path fill="#2c3b4a" d="M 718.425781 771.277344 C 716.851562 759.128906 715.738281 753.5 715.074219 750.894531 L 720.621094 749.5 C 721.671875 753.246094 723.027344 759.640625 724.4375 770.480469 C 729.480469 809.351562 668.058594 825.457031 654.503906 787.988281 C 650.804688 777.769531 648.820312 768.839844 648.027344 765.019531 L 653.578125 763.632812 C 654.179688 766.253906 656.035156 774.402344 660.191406 785.902344 C 670.472656 814.320312 722.289062 800.953125 718.429688 771.277344 Z M 718.425781 771.277344 " fill-opacity="1" fill-rule="nonzero"/><path fill="#ffffff" d="M 709.015625 313.277344 L 760.832031 295.308594 L 830.878906 492.96875 L 805.367188 496.300781 L 748.8125 406.292969 L 758.183594 370.609375 L 731.648438 395.222656 Z M 709.015625 313.277344 " fill-opacity="1" fill-rule="evenodd"/><path fill="#ffffff" d="M 902.882812 321.28125 C 901.617188 320.917969 861.019531 308.886719 861.019531 308.886719 L 844.195312 362.421875 L 854.230469 489.609375 L 872.152344 486.871094 L 893.082031 395.222656 L 871.746094 362.0625 L 904.058594 375.164062 L 902.882812 321.277344 Z M 902.882812 321.28125 " fill-opacity="1" fill-rule="evenodd"/><path fill="#f9bfb3" d="M 900.230469 482.585938 C 895.441406 485.980469 888.753906 493.453125 879.28125 494.773438 L 907.667969 542.289062 C 924.980469 538.128906 953.601562 539.464844 957.707031 517.902344 C 962.046875 495.140625 931.101562 470.210938 917.578125 472.027344 C 904.058594 473.847656 900.230469 482.585938 900.230469 482.585938 Z M 900.230469 482.585938 " fill-opacity="1" fill-rule="evenodd"/><path fill="#f9bfb3" d="M 861.753906 563.160156 L 895.078125 576.527344 L 901.117188 554.910156 Z M 861.753906 563.160156 " fill-opacity="1" fill-rule="evenodd"/><path fill="#f9bfb3" d="M 824.886719 493.753906 C 824.886719 493.753906 800.03125 477.617188 770.292969 478.707031 C 740.558594 479.800781 740.003906 483.160156 740.003906 483.160156 L 749.113281 504.433594 Z M 824.886719 493.753906 " fill-opacity="1" fill-rule="evenodd"/><path fill="#ffffff" d="M 778.433594 773.847656 L 644.679688 773.117188 C 644.679688 773.117188 641.863281 877.078125 644.679688 876.882812 C 647.496094 876.6875 710.929688 915.113281 710.929688 915.113281 L 778.433594 882.34375 L 778.433594 773.84375 Z M 778.433594 773.847656 " fill-opacity="1" fill-rule="evenodd"/><path fill="#e5e7e9" d="M 947.371094 617.03125 L 894 589.265625 L 902.535156 557.921875 L 898.335938 556.765625 L 889.304688 589.921875 L 888.808594 591.734375 L 890.511719 592.507812 L 938.738281 614.351562 Z M 947.371094 617.03125 " fill-opacity="1" fill-rule="nonzero"/><path fill="#d2d3d4" d="M 920.886719 385.910156 L 916.515625 385.910156 L 916.515625 460.890625 L 920.886719 460.890625 Z M 920.886719 385.910156 " fill-opacity="1" fill-rule="nonzero"/><path fill="#f9bfb3" d="M 878.175781 132 C 878.175781 132 884.652344 192.210938 871.699219 229.339844 C 858.746094 266.46875 841.308594 277.507812 820.382812 277.007812 C 799.457031 276.503906 771.808594 256.433594 764.585938 239.875 C 757.359375 223.316406 757.859375 217.296875 757.859375 217.296875 C 757.859375 217.296875 746.902344 222.066406 741.421875 200.992188 C 735.941406 179.917969 726.472656 133.253906 741.421875 106.660156 C 756.367188 80.066406 799.714844 70.035156 842.5625 81.074219 C 885.40625 92.113281 878.179688 132.003906 878.179688 132.003906 Z M 878.175781 132 " fill-opacity="1" fill-rule="evenodd"/><path fill="#f9bfb3" d="M 874.496094 219.824219 C 873.6875 223.121094 872.757812 226.308594 871.699219 229.339844 C 858.746094 266.46875 841.308594 277.507812 820.382812 277.007812 C 799.460938 276.503906 771.808594 256.433594 764.585938 239.878906 C 758.65625 226.28125 757.925781 219.792969 757.859375 217.902344 C 760.390625 218.152344 766.398438 215.929688 765.246094 188.566406 C 765.246094 188.566406 771.632812 218.886719 774.988281 221.863281 C 778.339844 224.835938 790.40625 241.027344 796.195312 233.976562 C 801.988281 226.929688 804.726562 222.855469 813.628906 222.660156 C 822.527344 222.460938 837.03125 229.023438 844.203125 226.929688 C 851.371094 224.835938 853.726562 233.441406 857.164062 235.742188 C 860.554688 238.011719 873.277344 224.136719 874.5 219.824219 Z M 874.496094 219.824219 " fill-opacity="1" fill-rule="evenodd"/><path fill="#e8a597" d="M 733.707031 135.867188 C 734.488281 125.109375 736.777344 114.914062 741.417969 106.660156 C 756.363281 80.066406 799.710938 70.035156 842.558594 81.074219 C 877.316406 90.027344 879.121094 117.964844 878.5625 128.195312 C 873.605469 129.648438 854.019531 134.414062 825.777344 128.808594 C 792.902344 122.289062 786.269531 117.164062 778.796875 131.46875 C 771.320312 145.773438 767.527344 161.734375 767.527344 161.734375 C 767.527344 161.734375 747.855469 150.882812 733.710938 135.867188 Z M 733.707031 135.867188 " fill-opacity="1" fill-rule="evenodd"/><path fill="#1b2631" d="M 897.484375 129.992188 C 891.246094 143.507812 879.441406 150.300781 879.339844 148.300781 C 879.242188 146.300781 875.855469 126.984375 870.957031 123.222656 C 866.058594 119.457031 872.203125 127.488281 843.558594 121.714844 C 814.90625 115.945312 799.46875 109.425781 786.011719 115.945312 C 764.671875 126.296875 768.300781 201.746094 767.578125 201.746094 C 766.109375 201.746094 764.945312 199.136719 763.804688 195.636719 C 762.539062 191.769531 761.300781 186.816406 759.691406 183.089844 C 759.066406 181.632812 758.378906 180.359375 757.613281 179.421875 C 753.132812 173.902344 746.667969 176.433594 742.667969 182.929688 C 738.667969 189.421875 741.027344 199.464844 741.027344 199.464844 C 741.027344 199.464844 731.707031 178.667969 729.464844 154.832031 C 727.191406 130.648438 712.082031 82.039062 763.871094 74.164062 C 803.410156 21.867188 925.273438 52.554688 897.488281 129.996094 Z M 897.484375 129.992188 " fill-opacity="1" fill-rule="evenodd"/><path fill="#d18b7d" d="M 832.078125 159.761719 C 832.105469 159.90625 841.167969 210.5 839.289062 213.652344 C 837.742188 216.25 819.617188 212.769531 819.566406 212.761719 L 818.894531 216.480469 C 818.949219 216.488281 839.578125 220.515625 842.507812 215.589844 C 843.773438 213.472656 842.238281 200.21875 840.320312 187.082031 C 838.277344 173.058594 835.785156 159.167969 835.769531 159.09375 Z M 832.078125 159.761719 " fill-opacity="1" fill-rule="nonzero"/><path fill="#301d4a" d="M 857.160156 169.335938 C 853.960938 169.335938 851.367188 173.484375 851.367188 178.601562 C 851.367188 183.71875 853.964844 187.863281 857.160156 187.863281 C 860.355469 187.863281 862.949219 183.714844 862.949219 178.601562 C 862.949219 173.484375 860.355469 169.335938 857.160156 169.335938 Z M 857.160156 169.335938 " fill-opacity="1" fill-rule="evenodd"/><path fill="#301d4a" d="M 801.984375 169.335938 C 798.789062 169.335938 796.191406 173.484375 796.191406 178.601562 C 796.191406 183.71875 798.789062 187.863281 801.984375 187.863281 C 805.179688 187.863281 807.773438 183.714844 807.773438 178.601562 C 807.773438 173.484375 805.179688 169.335938 801.984375 169.335938 Z M 801.984375 169.335938 " fill-opacity="1" fill-rule="evenodd"/><path fill="#1b2631" d="M 876.015625 157.121094 C 875.96875 157.074219 860.148438 140.710938 845.394531 153.121094 L 849.613281 158.207031 C 859.691406 149.726562 871.273438 161.703125 871.304688 161.734375 Z M 876.015625 157.121094 " fill-opacity="1" fill-rule="evenodd"/><path fill="#1b2631" d="M 786.675781 157.121094 C 786.71875 157.074219 802.539062 140.710938 817.296875 153.121094 L 813.078125 158.207031 C 803 149.726562 791.417969 161.703125 791.386719 161.734375 Z M 786.675781 157.121094 " fill-opacity="1" fill-rule="evenodd"/><path fill="#d18b7d" d="M 844.84375 232.757812 C 844.792969 232.773438 826.746094 238.726562 807.570312 226.929688 L 805.609375 230.160156 C 826.261719 242.867188 845.886719 236.390625 845.949219 236.375 L 844.84375 232.761719 Z M 844.84375 232.757812 " fill-opacity="1" fill-rule="nonzero"/><path fill="#d18b7d" d="M 804.589844 219.589844 C 804.5625 219.589844 794.691406 217.671875 792.90625 229.648438 L 796.628906 230.195312 C 797.832031 222.113281 803.984375 223.320312 804 223.324219 Z M 804.589844 219.589844 " fill-opacity="1" fill-rule="nonzero"/><path fill="#d18b7d" d="M 746.953125 188.492188 C 746.960938 188.476562 749.601562 182.984375 752.296875 185.605469 L 752.582031 185.898438 C 753.835938 187.339844 755.085938 190.050781 755.960938 193.214844 C 747.246094 188.347656 747.027344 205.453125 747.027344 205.503906 L 749.839844 205.550781 C 749.839844 205.507812 750.03125 191.410156 756.824219 197.375 L 756.828125 197.429688 C 757.5 202.164062 757.109375 207.019531 754.609375 209.625 L 754.242188 209.980469 L 756.097656 212.113281 C 756.292969 211.945312 756.472656 211.765625 756.644531 211.589844 C 759.828125 208.253906 760.386719 202.515625 759.617188 197.03125 C 758.863281 191.667969 756.796875 186.441406 754.695312 184.03125 L 754.25 183.558594 C 748.738281 178.203125 744.445312 187.199219 744.433594 187.226562 Z M 746.953125 188.492188 " fill-opacity="1" fill-rule="nonzero"/><path fill="#ffffff" d="M 859.667969 171.945312 C 858.777344 171.945312 858.054688 172.667969 858.054688 173.5625 C 858.054688 174.457031 858.777344 175.183594 859.667969 175.183594 C 860.554688 175.183594 861.277344 174.457031 861.277344 173.5625 C 861.277344 172.667969 860.554688 171.945312 859.667969 171.945312 Z M 859.667969 171.945312 " fill-opacity="1" fill-rule="evenodd"/><path fill="#ffffff" d="M 804.320312 171.945312 C 803.429688 171.945312 802.714844 172.667969 802.714844 173.5625 C 802.714844 174.457031 803.433594 175.183594 804.320312 175.183594 C 805.207031 175.183594 805.929688 174.457031 805.929688 173.5625 C 805.929688 172.667969 805.207031 171.945312 804.320312 171.945312 Z M 804.320312 171.945312 " fill-opacity="1" fill-rule="evenodd"/><path fill="#655fa1" d="M 835.828125 1154.921875 C 835.804688 1155.65625 826.949219 1410.425781 881.371094 1489.789062 L 878.410156 1491.847656 C 823.304688 1411.492188 832.210938 1155.542969 832.230469 1154.808594 Z M 858.492188 1081.902344 C 858.492188 1082.109375 857.507812 1153.8125 896.472656 1194.410156 L 893.878906 1196.921875 C 853.890625 1155.253906 854.894531 1082.085938 854.894531 1081.875 Z M 761.792969 1099.289062 C 761.777344 1099.734375 754.542969 1255.382812 742.171875 1323.167969 L 738.632812 1322.519531 C 750.957031 1254.972656 758.179688 1099.582031 758.195312 1099.132812 Z M 690.609375 1278.242188 C 690.585938 1278.859375 682.191406 1493.808594 729.433594 1550.273438 L 726.679688 1552.605469 C 678.535156 1495.050781 686.992188 1278.734375 687.015625 1278.113281 Z M 690.609375 1278.242188 " fill-opacity="1" fill-rule="nonzero"/><path fill="#d2d3d4" d="M 645.136719 908.898438 C 645.207031 909.117188 669.347656 985.800781 790.125 1013.539062 L 789.335938 1017.078125 C 666.554688 988.875 641.792969 910.261719 641.71875 910.035156 Z M 645.136719 908.898438 " fill-opacity="1" fill-rule="nonzero"/><path fill="#d2d3d4" d="M 671.644531 338.9375 C 671.703125 339.03125 693.554688 372.34375 707.308594 416.757812 L 710.722656 415.6875 C 696.808594 370.777344 674.699219 337.0625 674.636719 336.964844 L 671.644531 338.933594 Z M 671.644531 338.9375 " fill-opacity="1" fill-rule="nonzero"/><path fill="#d2d3d4" d="M 747.503906 505.984375 C 747.457031 506.042969 729.976562 527.285156 728.367188 556.667969 L 731.929688 556.863281 C 733.472656 528.664062 750.238281 508.296875 750.285156 508.234375 Z M 751.507812 512.808594 C 751.476562 512.902344 740.128906 546.421875 758.777344 563.949219 L 761.214844 561.316406 C 744.253906 545.378906 754.863281 514.023438 754.890625 513.9375 Z M 751.507812 512.808594 " fill-opacity="1" fill-rule="nonzero"/><path fill="#d2d3d4" d="M 986.4375 533.359375 C 986.410156 533.34375 976.304688 528.148438 958.472656 524.523438 L 957.773438 528.042969 C 975.125 531.566406 984.8125 536.554688 984.839844 536.570312 Z M 986.4375 533.359375 " fill-opacity="1" fill-rule="nonzero"/><path fill="#f5ffe6" d="M 424.785156 553.597656 C 419.097656 553.597656 413.535156 555.21875 408.738281 558.273438 C 408.566406 558.386719 408.464844 558.566406 408.464844 558.773438 L 408.464844 562.855469 C 408.464844 573.039062 413.589844 582.382812 422.183594 587.867188 C 423.742188 588.863281 425.820312 588.863281 427.382812 587.867188 C 435.976562 582.398438 441.105469 573.054688 441.105469 562.855469 L 441.105469 558.765625 C 441.105469 558.566406 441.003906 558.378906 440.828125 558.265625 C 436.019531 555.21875 430.472656 553.597656 424.785156 553.597656 Z M 424.785156 553.597656 " fill-opacity="1" fill-rule="nonzero"/><g clip-path="url(#4e7426af7e)"><path fill="#b7ddf7" d="M 433.679688 568.621094 L 433.679688 573.574219 C 433.679688 574.113281 433.246094 574.5625 432.691406 574.5625 L 428.246094 574.5625 L 428.246094 579.011719 C 428.246094 579.546875 427.808594 580 427.257812 580 L 422.304688 580 C 421.765625 580 421.316406 579.5625 421.316406 579.011719 L 421.316406 574.5625 L 416.867188 574.5625 C 416.332031 574.5625 415.882812 574.128906 415.882812 573.574219 L 415.882812 568.621094 C 415.882812 568.085938 416.316406 567.636719 416.867188 567.636719 L 421.316406 567.636719 L 421.316406 563.1875 C 421.316406 562.652344 421.75 562.199219 422.304688 562.199219 L 427.265625 562.199219 C 427.800781 562.199219 428.253906 562.636719 428.253906 563.1875 L 428.253906 567.636719 L 432.699219 567.636719 C 433.238281 567.644531 433.679688 568.085938 433.679688 568.621094 Z M 428.566406 589.738281 C 437.8125 583.863281 443.332031 573.804688 443.332031 562.847656 L 443.332031 558.765625 C 443.332031 557.800781 442.84375 556.90625 442.019531 556.386719 C 436.863281 553.09375 430.898438 551.355469 424.785156 551.355469 C 418.652344 551.355469 412.691406 553.09375 407.523438 556.378906 C 406.703125 556.898438 406.210938 557.792969 406.210938 558.765625 L 406.210938 562.847656 C 406.210938 573.804688 411.734375 583.863281 420.976562 589.738281 C 422.113281 590.464844 423.425781 590.84375 424.777344 590.84375 C 426.128906 590.84375 427.4375 590.464844 428.566406 589.738281 Z M 441.507812 557.199219 C 442.046875 557.539062 442.359375 558.125 442.359375 558.765625 L 442.359375 562.847656 C 442.359375 573.472656 437.011719 583.222656 428.054688 588.925781 C 427.066406 589.550781 425.9375 589.882812 424.777344 589.882812 C 423.613281 589.882812 422.484375 589.550781 421.496094 588.925781 C 412.539062 583.222656 407.191406 573.472656 407.191406 562.847656 L 407.191406 558.765625 C 407.191406 558.132812 407.507812 557.539062 408.042969 557.199219 C 413.054688 554.007812 418.835938 552.332031 424.777344 552.332031 C 430.71875 552.332031 436.5 554.007812 441.507812 557.199219 Z M 441.507812 557.199219 " fill-opacity="1" fill-rule="nonzero"/></g></svg>