<svg xmlns="http://www.w3.org/2000/svg" xmlns:xlink="http://www.w3.org/1999/xlink" width="1587" zoomAndPan="magnify" viewBox="0 0 1190.25 1683.749945" height="2245" preserveAspectRatio="xMidYMid meet" version="1.0"><defs><clipPath id="97c9b4ed47"><path d="M 572.160156 292 L 758 292 L 758 1023 L 572.160156 1023 Z M 572.160156 292 " clip-rule="nonzero"/></clipPath><clipPath id="838233037d"><path d="M 246 1607 L 445 1607 L 445 1683.09375 L 246 1683.09375 Z M 246 1607 " clip-rule="nonzero"/></clipPath><clipPath id="426ae1cfef"><path d="M 346 1620 L 527 1620 L 527 1683.09375 L 346 1683.09375 Z M 346 1620 " clip-rule="nonzero"/></clipPath></defs><path fill="#fafbff" d="M 814.441406 1652.882812 C 815.523438 1652.882812 816.40625 1653.765625 816.40625 1654.859375 C 816.40625 1655.953125 815.519531 1656.835938 814.441406 1656.835938 C 813.359375 1656.835938 812.480469 1655.949219 812.480469 1654.859375 C 812.480469 1653.765625 813.359375 1652.882812 814.441406 1652.882812 Z M 814.441406 1652.882812 " fill-opacity="1" fill-rule="evenodd"/><path fill="#fafbff" d="M 859.539062 1652.882812 C 860.625 1652.882812 861.503906 1653.765625 861.503906 1654.859375 C 861.503906 1655.953125 860.625 1656.835938 859.539062 1656.835938 C 858.449219 1656.835938 857.578125 1655.949219 857.578125 1654.859375 C 857.578125 1653.765625 858.453125 1652.882812 859.539062 1652.882812 Z M 859.539062 1652.882812 " fill-opacity="1" fill-rule="evenodd"/><path fill="#f9bfb3" d="M 836.21875 221.980469 C 836.21875 221.980469 832.363281 253.761719 841.878906 274.460938 C 844.628906 280.449219 848.496094 285.511719 853.894531 288.613281 C 877.976562 302.445312 767.074219 365.070312 767.074219 365.070312 L 730.066406 295.84375 L 730.964844 292.433594 C 730.964844 292.433594 755.082031 292.253906 761.855469 270.765625 L 761.960938 270.421875 C 763.667969 250.054688 759.734375 238.242188 759.734375 238.242188 C 759.734375 238.242188 761.1875 238.796875 763.714844 239.386719 C 762.484375 229.320312 760.226562 221.980469 760.226562 221.980469 L 817.753906 221.980469 C 820.183594 219.382812 822.574219 216.449219 824.882812 213.132812 C 827.722656 213.605469 830.363281 214.210938 832.792969 214.957031 C 832.707031 217.171875 832.632812 219.527344 832.585938 221.980469 Z M 836.21875 221.980469 " fill-opacity="1" fill-rule="evenodd"/><path fill="#e8a597" d="M 836.21875 221.980469 C 836.21875 221.980469 833.824219 241.707031 837.46875 260.203125 C 817.90625 271.730469 790.464844 282.175781 755.601562 281.761719 C 758.203125 278.921875 760.421875 275.328125 761.855469 270.769531 L 761.960938 270.425781 C 763.667969 250.058594 759.734375 238.246094 759.734375 238.246094 C 759.734375 238.246094 761.1875 238.800781 763.714844 239.390625 C 762.484375 229.324219 760.226562 221.980469 760.226562 221.980469 L 817.753906 221.980469 C 820.183594 219.386719 822.574219 216.453125 824.882812 213.132812 C 827.722656 213.609375 830.363281 214.214844 832.792969 214.960938 C 832.707031 217.175781 832.632812 219.53125 832.585938 221.984375 L 836.21875 221.984375 Z M 836.21875 221.980469 " fill-opacity="1" fill-rule="evenodd"/><path fill="#1b2631" d="M 785.96875 1563.828125 C 785.96875 1563.828125 787.414062 1578.753906 789.941406 1603.511719 C 792.472656 1628.273438 785.96875 1653.03125 785.96875 1653.03125 L 731.378906 1653.03125 C 731.378906 1653.03125 729.570312 1642.46875 722.335938 1643.195312 C 715.109375 1643.929688 688.722656 1656.308594 665.21875 1656.667969 C 641.71875 1657.035156 612.433594 1656.667969 612.433594 1656.667969 C 612.433594 1656.667969 591.464844 1631.550781 616.410156 1614.070312 C 641.355469 1596.59375 650.394531 1611.523438 678.59375 1593.683594 C 706.789062 1575.84375 705.707031 1563.824219 705.707031 1563.824219 L 785.964844 1563.824219 Z M 785.96875 1563.828125 " fill-opacity="1" fill-rule="evenodd"/><path fill="#1b2631" d="M 839.960938 1564.90625 C 839.960938 1564.90625 840.550781 1591.863281 827.179688 1604.609375 C 813.804688 1617.351562 808.742188 1640.488281 812.71875 1648.664062 C 816.695312 1656.835938 817.058594 1656.835938 817.058594 1656.835938 L 927.324219 1656.835938 C 927.324219 1656.835938 942.125 1649.1875 936.71875 1610.332031 C 931.316406 1571.476562 925.871094 1563.832031 925.871094 1563.832031 Z M 839.960938 1564.90625 " fill-opacity="1" fill-rule="evenodd"/><path fill="#29235c" d="M 936.738281 1571.472656 L 833.347656 1571.472656 L 812.980469 994.460938 L 794.203125 993.34375 L 797.191406 1571.472656 L 695.964844 1571.472656 L 668.058594 815.390625 L 958.035156 815.390625 C 939.441406 1075.726562 931.984375 1306.941406 936.742188 1571.472656 Z M 936.738281 1571.472656 " fill-opacity="1" fill-rule="evenodd"/><path fill="#171052" d="M 814.949219 1050.324219 L 812.980469 994.460938 L 794.203125 993.34375 L 794.269531 1006.472656 L 740.640625 1006.472656 L 732.683594 1050.894531 C 732.683594 1050.894531 693.523438 1031.144531 675.78125 1024.550781 L 668.058594 815.390625 L 958.035156 815.390625 C 952.707031 890.027344 948.289062 962.269531 944.816406 1033.589844 L 814.949219 1050.328125 Z M 814.949219 1050.324219 " fill-opacity="1" fill-rule="evenodd"/><path fill="#b7ddf7" d="M 863.605469 283.234375 C 818.394531 300.082031 782.199219 313.261719 733.308594 290.527344 L 689.273438 379.390625 L 663.078125 817.183594 L 958.03125 815.386719 L 933.660156 340.996094 L 863.605469 283.230469 Z M 863.605469 283.234375 " fill-opacity="1" fill-rule="evenodd"/><g clip-path="url(#97c9b4ed47)"><path fill="#f2f3f4" d="M 757.386719 341.851562 L 709.628906 1022.4375 L 638.78125 975.832031 L 657.21875 596.453125 C 657.21875 596.453125 528.15625 618.667969 579.492188 505.433594 C 622.917969 386.546875 628.046875 342.921875 730.964844 292.433594 C 730.964844 292.433594 757.378906 341.960938 757.386719 341.851562 Z M 757.386719 341.851562 " fill-opacity="1" fill-rule="evenodd"/></g><path fill="#e5e7e9" d="M 743.285156 542.757812 L 741.574219 567.15625 C 735.96875 570.804688 727.417969 577.484375 726.394531 579.71875 C 724.960938 582.84375 713.898438 585.253906 698.648438 593.503906 C 688.847656 598.808594 669.292969 605.414062 656.585938 609.457031 L 657.21875 596.453125 C 657.21875 596.453125 655.9375 596.671875 653.707031 596.957031 L 710.628906 569.972656 L 707.050781 553.59375 L 738.441406 541.789062 Z M 743.285156 542.757812 " fill-opacity="1" fill-rule="evenodd"/><path fill="#f2f3f4" d="M 861.03125 281.105469 C 861.03125 281.105469 938.976562 306.921875 961.644531 323.738281 C 1017.367188 365.066406 968.882812 445.355469 969.144531 451.085938 L 994.230469 1006.957031 L 788.113281 1026.429688 L 773.429688 548.75 L 691.195312 531.664062 L 721.953125 464.65625 L 772.347656 472.203125 L 861.035156 281.109375 Z M 861.03125 281.105469 " fill-opacity="1" fill-rule="evenodd"/><path fill="#e5e7e9" d="M 886.53125 407.726562 L 862.707031 462.3125 C 862.707031 462.3125 832.078125 457.039062 822.285156 460.648438 L 812.492188 464.257812 C 812.492188 464.257812 856.199219 415.664062 886.535156 407.726562 Z M 886.53125 407.726562 " fill-opacity="1" fill-rule="evenodd"/><path fill="#e5e7e9" d="M 969.992188 448.195312 C 969.4375 449.621094 969.117188 450.613281 969.144531 451.085938 L 972.160156 517.925781 C 961.164062 546.667969 948.632812 577.308594 941.121094 588.925781 C 925.460938 613.148438 801.398438 577.308594 794.945312 574.351562 C 792.214844 573.097656 783.4375 571.179688 774.0625 569.378906 L 773.429688 548.75 L 768.769531 547.78125 C 815.328125 556.886719 900.285156 573.058594 911.863281 572.136719 C 927.929688 570.855469 946.613281 515.003906 949.476562 504.179688 C 952.34375 493.351562 969.992188 448.1875 969.992188 448.1875 Z M 969.992188 448.195312 " fill-opacity="1" fill-rule="evenodd"/><path fill="#384b5e" d="M 833.226562 770.273438 C 833.21875 770.148438 829.015625 726.191406 855.933594 710.007812 C 861.746094 706.515625 867.839844 705.253906 873.820312 705.878906 C 880.257812 706.550781 886.492188 709.417969 892.019531 714.042969 C 897.398438 718.550781 902.140625 724.726562 905.746094 732.15625 C 911.234375 743.46875 914.175781 757.796875 912.835938 773.640625 L 902.921875 772.601562 C 904.0625 759.09375 901.59375 746.945312 896.960938 737.414062 C 894.039062 731.382812 890.269531 726.441406 886.042969 722.90625 C 881.964844 719.488281 877.46875 717.386719 872.921875 716.910156 C 868.855469 716.488281 864.675781 717.363281 860.65625 719.78125 C 839.65625 732.40625 843.140625 769.125 843.148438 769.230469 L 833.230469 770.269531 Z M 833.226562 770.273438 " fill-opacity="1" fill-rule="nonzero"/><path fill="#b2babb" d="M 886.417969 731.457031 C 886.441406 731.21875 895.210938 648.289062 920.054688 632.695312 C 944.125 617.582031 959.148438 638.484375 959.1875 638.539062 L 962.445312 636.140625 C 962.398438 636.074219 945.1875 612.128906 917.914062 629.25 C 891.410156 645.886719 882.429688 730.792969 882.40625 731.03125 L 886.414062 731.457031 Z M 886.417969 731.457031 " fill-opacity="1" fill-rule="nonzero"/><path fill="#e5e7e9" d="M 954.136719 638.335938 C 954.390625 637.589844 961.925781 630.625 961.925781 630.625 C 976.980469 640.261719 965.554688 654.921875 954.136719 638.335938 Z M 954.136719 638.335938 " fill-opacity="1" fill-rule="evenodd"/><path fill="#b2babb" d="M 953.671875 745.003906 C 953.707031 744.761719 965.277344 660.1875 943.519531 637.609375 C 921.144531 614.394531 898.730469 633.453125 898.664062 633.507812 L 901.230469 636.636719 C 901.28125 636.589844 920.863281 619.933594 940.628906 640.441406 C 961.007812 661.585938 949.707031 744.21875 949.675781 744.457031 L 953.667969 745.003906 Z M 953.671875 745.003906 " fill-opacity="1" fill-rule="nonzero"/><path fill="#e5e7e9" d="M 906.039062 637.6875 C 906.117188 636.914062 902.238281 627.5 902.238281 627.5 C 884.742188 629.839844 888.9375 647.789062 906.039062 637.6875 Z M 906.039062 637.6875 " fill-opacity="1" fill-rule="evenodd"/><path fill="#2c3b4a" d="M 884.28125 750.433594 C 885.859375 738.285156 886.96875 732.65625 887.636719 730.050781 L 882.089844 728.65625 C 881.039062 732.402344 879.683594 738.796875 878.273438 749.636719 C 873.226562 788.503906 934.652344 804.609375 948.203125 767.144531 C 951.902344 756.921875 953.890625 747.992188 954.683594 744.175781 L 949.132812 742.789062 C 948.53125 745.410156 946.675781 753.558594 942.515625 765.058594 C 932.238281 793.476562 880.417969 780.105469 884.28125 750.429688 Z M 884.28125 750.433594 " fill-opacity="1" fill-rule="nonzero"/><path fill="#ffffff" d="M 893.695312 292.433594 L 841.878906 274.464844 L 771.832031 472.125 L 797.34375 475.457031 L 853.898438 385.445312 L 844.527344 349.765625 L 871.0625 374.378906 Z M 893.695312 292.433594 " fill-opacity="1" fill-rule="evenodd"/><path fill="#ffffff" d="M 699.828125 300.433594 C 701.09375 300.070312 741.691406 288.042969 741.691406 288.042969 L 758.511719 341.578125 L 748.480469 468.761719 L 730.554688 466.027344 L 709.625 374.378906 L 730.964844 341.21875 L 698.648438 354.320312 Z M 699.828125 300.433594 " fill-opacity="1" fill-rule="evenodd"/><path fill="#f9bfb3" d="M 702.480469 461.738281 C 707.269531 465.136719 713.953125 472.605469 723.429688 473.929688 L 695.042969 521.445312 C 677.730469 517.285156 649.109375 518.617188 645 497.058594 C 640.664062 474.296875 671.609375 449.363281 685.128906 451.183594 C 698.648438 453 702.480469 461.738281 702.480469 461.738281 Z M 702.480469 461.738281 " fill-opacity="1" fill-rule="evenodd"/><path fill="#f9bfb3" d="M 740.957031 542.3125 L 707.632812 555.683594 L 701.59375 534.066406 Z M 740.957031 542.3125 " fill-opacity="1" fill-rule="evenodd"/><path fill="#f9bfb3" d="M 777.824219 472.910156 C 777.824219 472.910156 802.679688 456.769531 832.417969 457.863281 C 862.152344 458.957031 862.703125 462.3125 862.703125 462.3125 L 853.59375 483.589844 Z M 777.824219 472.910156 " fill-opacity="1" fill-rule="evenodd"/><path fill="#ffffff" d="M 824.277344 753.003906 L 958.03125 752.273438 C 958.03125 752.273438 960.84375 856.234375 958.03125 856.035156 C 955.214844 855.84375 891.777344 894.269531 891.777344 894.269531 L 824.277344 861.5 L 824.277344 753 Z M 824.277344 753.003906 " fill-opacity="1" fill-rule="evenodd"/><path fill="#e5e7e9" d="M 655.335938 596.183594 L 708.707031 568.421875 L 700.175781 537.074219 L 704.371094 535.917969 L 713.40625 569.078125 L 713.898438 570.890625 L 712.195312 571.660156 L 663.972656 593.503906 Z M 655.335938 596.183594 " fill-opacity="1" fill-rule="nonzero"/><path fill="#d2d3d4" d="M 681.820312 365.066406 L 686.191406 365.066406 L 686.191406 440.042969 L 681.820312 440.042969 Z M 681.820312 365.066406 " fill-opacity="1" fill-rule="nonzero"/><path fill="#f9bfb3" d="M 724.535156 111.15625 C 724.535156 111.15625 718.058594 171.363281 731.011719 208.492188 C 743.960938 245.625 761.398438 256.664062 782.324219 256.160156 C 803.25 255.65625 830.902344 235.589844 838.125 219.03125 C 845.351562 202.472656 844.847656 196.453125 844.847656 196.453125 C 844.847656 196.453125 855.808594 201.21875 861.289062 180.144531 C 866.769531 159.074219 876.238281 112.410156 861.289062 85.816406 C 846.34375 59.222656 802.996094 49.1875 760.148438 60.230469 C 717.304688 71.269531 724.53125 111.15625 724.53125 111.15625 Z M 724.535156 111.15625 " fill-opacity="1" fill-rule="evenodd"/><path fill="#f9bfb3" d="M 728.214844 198.980469 C 729.023438 202.277344 729.949219 205.464844 731.007812 208.492188 C 743.960938 245.625 761.398438 256.664062 782.324219 256.160156 C 803.25 255.65625 830.902344 235.589844 838.125 219.03125 C 844.054688 205.4375 844.78125 198.945312 844.847656 197.058594 C 842.316406 197.308594 836.3125 195.085938 837.464844 167.71875 C 837.464844 167.71875 831.078125 198.042969 827.722656 201.019531 C 824.371094 203.988281 812.304688 220.183594 806.515625 213.132812 C 800.722656 206.085938 797.984375 202.011719 789.082031 201.8125 C 780.183594 201.617188 765.675781 208.179688 758.507812 206.085938 C 751.339844 203.992188 748.984375 212.597656 745.542969 214.894531 C 742.152344 217.167969 729.433594 203.292969 728.210938 198.980469 Z M 728.214844 198.980469 " fill-opacity="1" fill-rule="evenodd"/><path fill="#e8a597" d="M 869.003906 115.023438 C 868.222656 104.261719 865.933594 94.070312 861.289062 85.816406 C 846.347656 59.222656 803 49.1875 760.152344 60.230469 C 725.394531 69.183594 723.585938 97.121094 724.148438 107.351562 C 729.105469 108.800781 748.6875 113.566406 776.933594 107.964844 C 809.808594 101.441406 816.441406 96.320312 823.914062 110.625 C 831.386719 124.929688 835.183594 140.890625 835.183594 140.890625 C 835.183594 140.890625 854.855469 130.039062 869 115.023438 Z M 869.003906 115.023438 " fill-opacity="1" fill-rule="evenodd"/><path fill="#1b2631" d="M 705.226562 109.148438 C 711.460938 122.664062 723.269531 129.457031 723.371094 127.457031 C 723.46875 125.453125 726.855469 106.140625 731.753906 102.375 C 736.648438 98.613281 730.507812 106.644531 759.152344 100.871094 C 787.800781 95.097656 803.242188 88.578125 816.695312 95.097656 C 838.035156 105.453125 834.410156 180.898438 835.132812 180.898438 C 836.601562 180.898438 837.765625 178.292969 838.90625 174.792969 C 840.167969 170.925781 841.410156 165.96875 843.015625 162.246094 C 843.644531 160.785156 844.328125 159.511719 845.097656 158.574219 C 849.578125 153.054688 856.042969 155.589844 860.042969 162.085938 C 864.042969 168.578125 861.683594 178.621094 861.683594 178.621094 C 861.683594 178.621094 871.003906 157.824219 873.246094 133.988281 C 875.515625 109.804688 890.628906 61.195312 838.839844 53.316406 C 799.296875 1.023438 677.4375 31.707031 705.222656 109.152344 Z M 705.226562 109.148438 " fill-opacity="1" fill-rule="evenodd"/><path fill="#d18b7d" d="M 770.632812 138.917969 C 770.605469 139.0625 761.542969 189.65625 763.417969 192.808594 C 764.96875 195.40625 783.09375 191.925781 783.140625 191.914062 L 783.816406 195.636719 C 783.761719 195.644531 763.128906 199.671875 760.199219 194.742188 C 758.9375 192.628906 760.46875 179.375 762.386719 166.238281 C 764.433594 152.214844 766.925781 138.324219 766.9375 138.246094 L 770.632812 138.914062 Z M 770.632812 138.917969 " fill-opacity="1" fill-rule="nonzero"/><path fill="#301d4a" d="M 745.550781 148.492188 C 748.75 148.492188 751.339844 152.636719 751.339844 157.753906 C 751.339844 162.871094 748.746094 167.019531 745.550781 167.019531 C 742.351562 167.019531 739.761719 162.871094 739.761719 157.753906 C 739.761719 152.640625 742.351562 148.492188 745.550781 148.492188 Z M 745.550781 148.492188 " fill-opacity="1" fill-rule="evenodd"/><path fill="#301d4a" d="M 800.726562 148.492188 C 803.921875 148.492188 806.515625 152.636719 806.515625 157.753906 C 806.515625 162.871094 803.921875 167.019531 800.726562 167.019531 C 797.527344 167.019531 794.9375 162.871094 794.9375 157.753906 C 794.9375 152.640625 797.527344 148.492188 800.726562 148.492188 Z M 800.726562 148.492188 " fill-opacity="1" fill-rule="evenodd"/><path fill="#1b2631" d="M 726.691406 136.273438 C 726.738281 136.226562 742.5625 119.867188 757.3125 132.277344 L 753.097656 137.363281 C 743.019531 128.882812 731.4375 140.859375 731.40625 140.886719 L 726.695312 136.273438 Z M 726.691406 136.273438 " fill-opacity="1" fill-rule="evenodd"/><path fill="#1b2631" d="M 816.035156 136.273438 C 815.992188 136.226562 800.167969 119.867188 785.414062 132.277344 L 789.632812 137.363281 C 799.710938 128.882812 811.292969 140.859375 811.324219 140.886719 Z M 816.035156 136.273438 " fill-opacity="1" fill-rule="evenodd"/><path fill="#d18b7d" d="M 757.867188 211.914062 C 757.917969 211.929688 775.960938 217.882812 795.140625 206.085938 L 797.097656 209.316406 C 776.445312 222.019531 756.820312 215.542969 756.761719 215.53125 Z M 757.867188 211.914062 " fill-opacity="1" fill-rule="nonzero"/><path fill="#d18b7d" d="M 798.121094 198.746094 C 798.148438 198.742188 808.019531 196.824219 809.804688 208.804688 L 806.082031 209.351562 C 804.875 201.265625 798.726562 202.476562 798.710938 202.480469 Z M 798.121094 198.746094 " fill-opacity="1" fill-rule="nonzero"/><path fill="#d18b7d" d="M 855.753906 167.648438 C 855.75 167.632812 853.109375 162.136719 850.414062 164.757812 L 850.128906 165.054688 C 848.875 166.496094 847.621094 169.207031 846.75 172.371094 C 855.464844 167.503906 855.679688 184.609375 855.679688 184.660156 L 852.867188 184.703125 C 852.867188 184.664062 852.679688 170.566406 845.886719 176.53125 L 845.882812 176.585938 C 845.210938 181.316406 845.601562 186.175781 848.101562 188.78125 L 848.46875 189.132812 L 846.613281 191.269531 C 846.417969 191.097656 846.234375 190.917969 846.066406 190.742188 C 842.878906 187.410156 842.320312 181.671875 843.089844 176.1875 C 843.847656 170.824219 845.910156 165.597656 848.011719 163.1875 L 848.460938 162.710938 C 853.972656 157.359375 858.265625 166.355469 858.273438 166.378906 L 855.757812 167.644531 Z M 855.753906 167.648438 " fill-opacity="1" fill-rule="nonzero"/><path fill="#ffffff" d="M 743.039062 151.101562 C 743.933594 151.101562 744.652344 151.824219 744.652344 152.71875 C 744.652344 153.613281 743.933594 154.339844 743.039062 154.339844 C 742.15625 154.339844 741.433594 153.613281 741.433594 152.71875 C 741.433594 151.824219 742.15625 151.101562 743.039062 151.101562 Z M 743.039062 151.101562 " fill-opacity="1" fill-rule="evenodd"/><path fill="#ffffff" d="M 798.390625 151.101562 C 799.277344 151.101562 799.996094 151.824219 799.996094 152.71875 C 799.996094 153.613281 799.277344 154.339844 798.390625 154.339844 C 797.503906 154.339844 796.78125 153.613281 796.78125 152.71875 C 796.78125 151.824219 797.5 151.101562 798.390625 151.101562 Z M 798.390625 151.101562 " fill-opacity="1" fill-rule="evenodd"/><path fill="#655fa1" d="M 766.882812 1134.078125 C 766.90625 1134.8125 775.761719 1389.578125 721.339844 1468.941406 L 724.300781 1471.003906 C 779.40625 1390.648438 770.5 1134.699219 770.480469 1133.960938 Z M 744.21875 1061.058594 C 744.21875 1061.265625 745.203125 1132.964844 706.238281 1173.5625 L 708.832031 1176.078125 C 748.820312 1134.410156 747.816406 1061.242188 747.8125 1061.03125 Z M 840.914062 1078.441406 C 840.933594 1078.890625 848.167969 1234.539062 860.535156 1302.324219 L 864.078125 1301.675781 C 851.753906 1234.125 844.53125 1078.738281 844.511719 1078.289062 L 840.917969 1078.445312 Z M 912.101562 1257.394531 C 912.121094 1258.015625 920.519531 1472.960938 873.277344 1529.429688 L 876.027344 1531.757812 C 924.175781 1474.207031 915.71875 1257.890625 915.695312 1257.269531 Z M 912.101562 1257.394531 " fill-opacity="1" fill-rule="nonzero"/><path fill="#d2d3d4" d="M 957.574219 888.054688 C 957.503906 888.273438 933.359375 964.953125 812.582031 992.695312 L 813.375 996.230469 C 936.15625 968.03125 960.917969 889.414062 960.992188 889.191406 Z M 957.574219 888.054688 " fill-opacity="1" fill-rule="nonzero"/><path fill="#d2d3d4" d="M 931.066406 318.089844 C 931.007812 318.1875 909.15625 351.496094 895.398438 395.910156 L 891.988281 394.84375 C 905.902344 349.933594 928.011719 316.21875 928.074219 316.117188 Z M 931.066406 318.089844 " fill-opacity="1" fill-rule="nonzero"/><path fill="#d2d3d4" d="M 855.207031 485.140625 C 855.253906 485.199219 872.734375 506.4375 874.34375 535.824219 L 870.777344 536.019531 C 869.234375 507.820312 852.472656 487.449219 852.421875 487.390625 L 855.207031 485.136719 Z M 851.203125 491.960938 C 851.234375 492.058594 862.582031 525.578125 843.929688 543.105469 L 841.496094 540.46875 C 858.457031 524.53125 847.847656 493.179688 847.820312 493.089844 Z M 851.203125 491.960938 " fill-opacity="1" fill-rule="nonzero"/><path fill="#d2d3d4" d="M 616.273438 512.515625 C 616.300781 512.5 626.40625 507.304688 644.238281 503.679688 L 644.9375 507.199219 C 627.585938 510.722656 617.894531 515.710938 617.867188 515.726562 Z M 616.273438 512.515625 " fill-opacity="1" fill-rule="nonzero"/><g clip-path="url(#838233037d)"><path fill="#523c2e" d="M 347.542969 1607.269531 C 347.542969 1607.269531 314.996094 1640.496094 296.769531 1644.292969 C 278.542969 1648.09375 249.644531 1638.710938 246.570312 1662.558594 C 243.488281 1686.410156 263.203125 1704.796875 285.390625 1703.308594 C 307.574219 1701.824219 357.003906 1704.128906 357.003906 1704.128906 L 443.992188 1645.175781 L 444.351562 1608.226562 L 347.539062 1607.269531 Z M 347.542969 1607.269531 " fill-opacity="1" fill-rule="evenodd"/></g><path fill="#6d2f13" d="M 461.316406 235.914062 C 470.292969 244.246094 490.839844 265.394531 503.160156 294.648438 C 519.261719 332.894531 502.382812 372.8125 502.382812 372.8125 L 443.804688 347.503906 C 443.804688 347.503906 427.996094 314.847656 442.390625 249.972656 L 442.628906 248.898438 C 447.648438 245.328125 455.378906 239.878906 461.316406 235.914062 Z M 461.316406 235.914062 " fill-opacity="1" fill-rule="evenodd"/><path fill="#80b4d5" d="M 453.109375 210.859375 L 462.878906 237.386719 L 442.238281 250.671875 C 442.238281 250.671875 430.945312 227.953125 432.203125 228.242188 C 433.464844 228.53125 434.070312 215.503906 453.109375 210.859375 Z M 453.109375 210.859375 " fill-opacity="1" fill-rule="evenodd"/><path fill="#d18c84" d="M 310.507812 222.875 C 283.375 215.53125 288.011719 169.535156 303.117188 171.929688 C 306.691406 172.496094 310.507812 222.875 310.507812 222.875 Z M 310.507812 222.875 " fill-opacity="1" fill-rule="evenodd"/><path fill="#562910" d="M 304.769531 107.125 C 304.769531 107.125 285.992188 128.828125 292.203125 155.039062 C 298.410156 181.253906 303.964844 188.703125 303.964844 188.703125 C 303.964844 188.703125 305.929688 138.15625 313.226562 119.589844 C 320.523438 101.023438 304.769531 107.125 304.769531 107.125 Z M 304.769531 107.125 " fill-opacity="1" fill-rule="evenodd"/><path fill="#6d2f13" d="M 354.976562 65.546875 C 349.574219 65.78125 322.339844 49.308594 305.144531 69.320312 C 287.953125 89.332031 287.484375 107.804688 311.515625 121.117188 C 335.539062 134.433594 382.175781 127.398438 391.128906 131.105469 C 400.082031 134.808594 413.191406 139.816406 416.707031 161.070312 C 420.222656 182.320312 420.847656 187.863281 420.847656 187.863281 L 433.410156 232.027344 C 433.410156 232.027344 452.890625 223.71875 464.335938 187.445312 C 475.78125 151.167969 465.109375 109.277344 444.003906 87.183594 C 422.90625 65.082031 373.507812 59.84375 354.976562 65.546875 Z M 354.976562 65.546875 " fill-opacity="1" fill-rule="evenodd"/><path fill="#6dadd8" d="M 264.988281 891.808594 L 294.109375 1280.972656 L 336.335938 1610.003906 L 421.515625 1615.472656 L 400.265625 893.148438 Z M 264.988281 891.808594 " fill-opacity="1" fill-rule="evenodd"/><path fill="#649ec4" d="M 264.988281 891.808594 L 267.765625 928.917969 L 401.355469 930.238281 L 400.265625 893.148438 Z M 264.988281 891.808594 " fill-opacity="1" fill-rule="evenodd"/><path fill="#fac0b4" d="M 418.929688 249.140625 C 418.929688 249.140625 414.40625 304.128906 428.429688 323.597656 C 442.445312 343.066406 471.945312 349.332031 467.117188 349.28125 C 462.28125 349.234375 357.703125 434.046875 357.703125 434.046875 L 308.402344 355.085938 C 308.402344 355.085938 341.78125 348.324219 345.4375 323.347656 C 349.097656 298.371094 349.070312 271.929688 349.070312 271.929688 C 349.070312 271.929688 390.949219 291.007812 418.929688 249.136719 Z M 418.929688 249.140625 " fill-opacity="1" fill-rule="evenodd"/><path fill="#d18c84" d="M 418.929688 249.140625 C 418.929688 249.140625 417.9375 261.28125 418.332031 276.171875 C 404.65625 291.3125 381.871094 302.300781 359.675781 296.46875 C 355.808594 295.449219 352.046875 293.992188 348.433594 292.125 C 349.078125 280.328125 349.066406 271.929688 349.066406 271.929688 C 349.066406 271.929688 390.945312 291.007812 418.929688 249.140625 Z M 418.929688 249.140625 " fill-opacity="1" fill-rule="evenodd"/><g clip-path="url(#426ae1cfef)"><path fill="#604635" d="M 429.445312 1621.726562 C 429.445312 1621.726562 389.273438 1660.558594 376.6875 1667.824219 C 364.113281 1675.09375 344.644531 1689.109375 346.726562 1709.03125 C 348.800781 1728.953125 412.429688 1725.597656 420.449219 1722.835938 C 428.472656 1720.074219 496.976562 1690.617188 510.652344 1687.339844 C 524.328125 1684.070312 531.59375 1639.140625 521.476562 1627.753906 C 511.351562 1616.363281 429.445312 1621.726562 429.445312 1621.726562 Z M 429.445312 1621.726562 " fill-opacity="1" fill-rule="evenodd"/></g><path fill="#87c2ea" d="M 551.460938 894.640625 C 533.042969 917.203125 529.183594 1308.3125 524.542969 1317.363281 C 519.90625 1326.414062 521.476562 1627.753906 521.476562 1627.753906 C 521.476562 1627.753906 419.019531 1641.519531 421.4375 1626.761719 C 423.855469 1612.003906 400.660156 1263.136719 400.660156 1263.136719 L 371.84375 892.863281 Z M 551.460938 894.640625 " fill-opacity="1" fill-rule="evenodd"/><path fill="#6dadd8" d="M 551.460938 894.640625 C 548.460938 898.308594 545.863281 911.746094 543.570312 931.644531 L 374.734375 929.976562 L 371.839844 892.863281 Z M 551.460938 894.640625 " fill-opacity="1" fill-rule="evenodd"/><path fill="#fac0b4" d="M 314.683594 116.316406 C 313.242188 118.140625 303.617188 140.910156 303.941406 190.046875 C 304.269531 239.1875 328.351562 273.5625 359.820312 281.207031 C 391.285156 288.855469 423.9375 265.242188 430.140625 243.753906 C 436.335938 222.261719 437.554688 214.65625 437.554688 214.65625 C 457 218.339844 457.644531 165.804688 434.464844 169.855469 C 426.980469 171.164062 420.027344 177.601562 420.847656 182.445312 C 420.847656 182.445312 417.746094 152.992188 411.871094 144.527344 C 405.988281 136.066406 399.53125 122.078125 367.664062 125.207031 C 335.792969 128.332031 314.683594 116.316406 314.683594 116.316406 Z M 314.683594 116.316406 " fill-opacity="1" fill-rule="evenodd"/><path fill="#1e1851" d="M 330.40625 175.460938 C 334.304688 175.496094 337.421875 179.96875 337.371094 185.445312 C 337.3125 190.921875 334.109375 195.328125 330.207031 195.292969 C 326.308594 195.253906 323.195312 190.78125 323.246094 185.304688 C 323.296875 179.832031 326.507812 175.421875 330.40625 175.460938 Z M 330.40625 175.460938 " fill-opacity="1" fill-rule="evenodd"/><path fill="#1e1851" d="M 381.0625 175.460938 C 384.957031 175.5 388.074219 179.972656 388.023438 185.445312 C 387.96875 190.921875 384.761719 195.328125 380.859375 195.292969 C 376.960938 195.253906 373.84375 190.78125 373.898438 185.304688 C 373.953125 179.832031 377.160156 175.421875 381.0625 175.460938 Z M 381.0625 175.460938 " fill-opacity="1" fill-rule="evenodd"/><path fill="#d18b7d" d="M 335.625 237.566406 C 334.941406 236.960938 334.71875 235.640625 335.128906 234.632812 C 335.542969 233.617188 336.429688 233.289062 337.109375 233.898438 L 337.261719 234.03125 L 337.265625 234.03125 C 338.808594 235.414062 348.683594 244.257812 367.730469 234.871094 C 368.492188 234.5 369.3125 235.109375 369.566406 236.234375 C 369.8125 237.355469 369.40625 238.578125 368.648438 238.949219 C 348.335938 248.957031 337.46875 239.222656 335.769531 237.699219 L 335.769531 237.695312 Z M 335.625 237.566406 " fill-opacity="1" fill-rule="nonzero"/><path fill="#6d2f13" d="M 343.097656 164.792969 C 343.710938 165.804688 343.386719 167.125 342.375 167.738281 C 341.363281 168.355469 340.046875 168.03125 339.429688 167.019531 C 339.410156 166.996094 333.128906 157.011719 320.242188 166.691406 C 319.292969 167.402344 317.949219 167.207031 317.242188 166.257812 C 316.53125 165.3125 316.734375 163.96875 317.675781 163.257812 C 334.296875 150.773438 343.070312 164.753906 343.097656 164.792969 Z M 397.488281 165.332031 C 398.101562 166.34375 397.78125 167.664062 396.769531 168.277344 C 395.757812 168.894531 394.433594 168.574219 393.820312 167.558594 C 393.800781 167.535156 387.523438 157.550781 374.632812 167.230469 C 373.683594 167.9375 372.34375 167.742188 371.636719 166.796875 C 370.925781 165.851562 371.121094 164.503906 372.066406 163.796875 C 388.691406 151.3125 397.457031 165.292969 397.484375 165.332031 Z M 397.488281 165.332031 " fill-opacity="1" fill-rule="evenodd"/><path fill="#87c2ea" d="M 320.578125 347.339844 L 266.839844 367.765625 L 208.699219 486.015625 L 252.328125 661.554688 L 225.394531 908.03125 L 582.90625 911.566406 C 575.414062 864.941406 567.910156 818.316406 560.417969 771.699219 C 552.921875 725.078125 545.417969 678.453125 537.925781 631.832031 L 538.0625 628.765625 L 556.207031 638.050781 C 560.816406 499.644531 594.8125 457.804688 502.382812 360.355469 L 443.117188 333.4375 L 357.910156 412.730469 L 320.578125 347.34375 Z M 320.578125 347.339844 " fill-opacity="1" fill-rule="evenodd"/><path fill="#6dadd8" d="M 269.855469 480.3125 C 269.855469 480.3125 342.523438 506.121094 396.667969 504.136719 C 450.8125 502.152344 446.992188 513.597656 432.027344 540.332031 C 417.058594 567.066406 430.742188 590.421875 383.6875 599.503906 C 336.628906 608.585938 313.273438 614.425781 295.761719 594.3125 C 278.246094 574.203125 239.667969 477.253906 269.859375 480.3125 Z M 269.855469 480.3125 " fill-opacity="1" fill-rule="evenodd"/><path fill="#6dadd8" d="M 216.332031 516.726562 L 238.59375 606.277344 C 250.378906 608.816406 259.183594 608.003906 259.183594 608.003906 C 259.183594 608.003906 457.28125 711.160156 485.640625 701.207031 C 505.078125 694.386719 519.871094 659.953125 527.265625 638.953125 L 540.050781 645.066406 L 537.925781 631.832031 L 538.0625 628.765625 C 531.613281 625.027344 508.058594 609.875 474.945312 594.261719 L 456.207031 633.542969 C 456.207031 633.542969 273.261719 580.847656 265.910156 576.796875 C 258.5625 572.746094 259.15625 543.738281 236.695312 528.601562 C 226.679688 521.847656 220.335938 518.328125 216.332031 516.726562 Z M 216.332031 516.726562 " fill-opacity="1" fill-rule="evenodd"/><path fill="#80b4d5" d="M 190.554688 363.117188 L 199.738281 360.125 L 222.164062 427.273438 L 210.800781 425.289062 Z M 190.554688 363.117188 " fill-opacity="1" fill-rule="evenodd"/><path fill="#21628d" d="M 188.125 355.664062 L 197.3125 352.671875 L 207.214844 383.070312 L 198.027344 386.0625 Z M 188.125 355.664062 " fill-opacity="1" fill-rule="evenodd"/><path fill="#fac0b4" d="M 173.851562 418.84375 C 166.6875 417.59375 179.777344 407.410156 185.46875 399.808594 C 191.804688 391.34375 196.300781 396.785156 205.738281 390.910156 C 215.171875 385.03125 235.808594 396.894531 238.519531 410.28125 C 241.230469 423.664062 238.289062 430.085938 238.289062 430.085938 C 230.316406 429.914062 182.464844 420.34375 173.851562 418.84375 Z M 173.851562 418.84375 " fill-opacity="1" fill-rule="evenodd"/><path fill="#deedf9" d="M 443.121094 333.4375 C 443.121094 333.4375 449.898438 335.355469 458.449219 340.117188 C 447.703125 349.453125 372.566406 422.882812 369.40625 424.589844 C 366.210938 420.054688 360.429688 410.390625 360.429688 410.390625 L 443.117188 333.4375 Z M 443.121094 333.4375 " fill-opacity="1" fill-rule="evenodd"/><path fill="#c9def3" d="M 372.09375 422.320312 C 370.640625 423.636719 369.707031 424.429688 369.40625 424.589844 C 366.210938 420.054688 360.429688 410.386719 360.429688 410.386719 L 363.023438 407.972656 Z M 372.09375 422.320312 " fill-opacity="1" fill-rule="evenodd"/><path fill="#b9ddf5" d="M 283.699219 827.421875 C 284.085938 827.398438 418.570312 820.429688 515.183594 740.210938 L 519.289062 745.160156 C 421.035156 826.742188 284.433594 833.824219 284.039062 833.847656 Z M 283.699219 827.421875 " fill-opacity="1" fill-rule="nonzero"/><path fill="#b9ddf5" d="M 336.65625 869.023438 L 338.492188 868.9375 C 353.027344 868.324219 440.253906 864.632812 514.5 794.351562 L 518.910156 799.03125 C 442.929688 870.949219 353.636719 874.730469 338.757812 875.359375 C 338.105469 875.386719 337.621094 875.410156 337.128906 875.445312 Z M 336.65625 869.023438 " fill-opacity="1" fill-rule="nonzero"/><path fill="#586674" d="M 423.308594 312.769531 C 446.820312 320.195312 483.78125 338.839844 470.78125 380.875 C 465.679688 397.359375 458.511719 411.558594 450.90625 423.425781 L 443.457031 419.207031 C 450.765625 407.863281 457.667969 394.226562 462.582031 378.34375 C 472.101562 347.574219 448.46875 331.519531 428.472656 323.65625 L 428.429688 323.597656 C 426.328125 320.683594 424.652344 316.96875 423.308594 312.769531 Z M 423.308594 312.769531 " fill-opacity="1" fill-rule="nonzero"/><path fill="#deedf9" d="M 320.578125 347.34375 L 369.40625 424.589844 L 357.703125 434.046875 L 303.394531 351.144531 Z M 320.578125 347.34375 " fill-opacity="1" fill-rule="evenodd"/><path fill="#586674" d="M 344.597656 328.316406 C 324 341.007812 291.773438 377.539062 322.558594 477.011719 L 314.382812 479.546875 C 279.003906 365.238281 324.148438 328.476562 346.195312 317.730469 C 345.964844 319.605469 345.714844 321.480469 345.441406 323.347656 C 345.191406 325.050781 344.90625 326.707031 344.597656 328.320312 Z M 344.597656 328.316406 " fill-opacity="1" fill-rule="nonzero"/><path fill="#b2babb" d="M 318.660156 459.25 C 329.167969 459.355469 337.601562 467.957031 337.496094 478.464844 C 337.390625 488.976562 328.789062 497.410156 318.28125 497.308594 C 307.773438 497.203125 299.34375 488.601562 299.445312 478.089844 C 299.550781 467.582031 308.152344 459.148438 318.660156 459.25 Z M 318.660156 459.25 " fill-opacity="1" fill-rule="evenodd"/><path fill="#f3f4f4" d="M 318.640625 460.933594 C 328.222656 461.027344 335.914062 468.867188 335.8125 478.449219 C 335.71875 488.03125 327.878906 495.722656 318.300781 495.628906 C 308.71875 495.53125 301.03125 487.691406 301.125 478.109375 C 301.21875 468.527344 309.0625 460.839844 318.640625 460.933594 Z M 318.640625 460.933594 " fill-opacity="1" fill-rule="evenodd"/><path fill="#f3f4f4" d="M 318.550781 470.171875 C 323.03125 470.21875 326.621094 473.882812 326.578125 478.359375 C 326.535156 482.835938 322.867188 486.433594 318.394531 486.386719 C 313.917969 486.34375 310.320312 482.675781 310.363281 478.199219 C 310.410156 473.71875 314.074219 470.128906 318.550781 470.171875 Z M 318.550781 470.171875 " fill-opacity="1" fill-rule="evenodd"/><path fill="#b2babb" d="M 318.566406 468.347656 C 324.054688 468.402344 328.457031 472.894531 328.398438 478.378906 C 328.347656 483.863281 323.859375 488.269531 318.371094 488.210938 C 312.886719 488.15625 308.488281 483.667969 308.542969 478.179688 C 308.597656 472.695312 313.085938 468.292969 318.566406 468.347656 Z M 318.566406 468.347656 " fill-opacity="1" fill-rule="evenodd"/><path fill="#f3f4f4" d="M 398.84375 453.429688 C 398.726562 453.65625 360.472656 532.941406 374.21875 560.863281 C 387.546875 587.914062 412.742188 577.597656 412.816406 577.570312 L 414.425781 581.546875 C 414.34375 581.578125 385.464844 593.402344 370.371094 562.753906 C 355.703125 532.96875 394.867188 451.796875 394.980469 451.5625 L 398.839844 453.429688 Z M 398.84375 453.429688 " fill-opacity="1" fill-rule="nonzero"/><path fill="#ffffff" d="M 408.136719 574.921875 C 407.960938 575.730469 410.878906 586.203125 410.878906 586.203125 C 429.839844 586.003906 427.6875 566.449219 408.136719 574.921875 Z M 408.136719 574.921875 " fill-opacity="1" fill-rule="evenodd"/><path fill="#e5e7e8" d="M 467.117188 479.003906 C 467.007812 479.238281 430.371094 561.570312 398.152344 569.613281 C 365.019531 577.886719 355.390625 548.222656 355.363281 548.140625 L 359.421875 546.773438 C 359.445312 546.84375 367.851562 572.765625 397.117188 565.457031 C 427.296875 557.921875 463.101562 477.484375 463.203125 477.253906 Z M 467.117188 479.003906 " fill-opacity="1" fill-rule="nonzero"/><path fill="#ffffff" d="M 364.34375 548.527344 C 363.984375 549.265625 355.242188 555.53125 355.242188 555.53125 C 340.742188 543.617188 354.527344 529.878906 364.34375 548.527344 Z M 364.34375 548.527344 " fill-opacity="1" fill-rule="evenodd"/><path fill="#586674" d="M 407.472656 435.21875 C 402.132812 446.996094 400.003906 452.671875 399.15625 455.378906 L 393.371094 453.515625 C 394.507812 449.566406 396.847656 443.074219 401.609375 432.566406 C 418.695312 394.878906 483.128906 414.882812 474.507812 456.082031 C 472.15625 467.324219 468.976562 476.449219 467.570312 480.3125 L 461.78125 478.441406 C 462.699219 475.757812 465.558594 467.40625 468.207031 454.761719 C 474.75 423.511719 420.511719 406.4375 407.46875 435.21875 Z M 407.472656 435.21875 " fill-opacity="1" fill-rule="nonzero"/><path fill="#f3f4f4" d="M 165.148438 412.574219 L 306.773438 437.285156 L 346.210938 688.964844 C 346.007812 689.34375 344.109375 692.972656 343.925781 693.316406 C 296.179688 681.796875 248.539062 670.066406 200.804688 658.550781 C 188.183594 577.9375 175.476562 497.535156 162.855469 416.921875 C 162.992188 416.707031 165.019531 412.808594 165.148438 412.574219 Z M 165.148438 412.574219 " fill-opacity="1" fill-rule="evenodd"/><path fill="#2b74a7" d="M 162.847656 416.921875 L 304.476562 441.632812 L 343.910156 693.3125 L 200.695312 658.753906 Z M 162.847656 416.921875 " fill-opacity="1" fill-rule="evenodd"/><path fill="#206492" d="M 328.414062 594.394531 L 336.523438 646.144531 C 290.1875 624.226562 250.566406 603.59375 250.566406 603.59375 C 250.566406 603.59375 211.390625 607.21875 187.640625 575.34375 L 178.410156 516.347656 C 180.847656 519.089844 183.664062 522.1875 185.433594 523.925781 C 189.09375 527.511719 205.898438 538.90625 208.207031 535.800781 C 210.507812 532.699219 200.449219 515.257812 201.039062 512.703125 C 201.632812 510.152344 205.621094 509.054688 228.085938 524.191406 C 250.539062 539.328125 249.945312 568.335938 257.296875 572.390625 C 260.261719 574.023438 291.824219 583.578125 328.414062 594.394531 Z M 328.414062 594.394531 " fill-opacity="1" fill-rule="evenodd"/><path fill="#fac0b4" d="M 461.226562 585.84375 L 448.851562 613.902344 C 448.851562 613.902344 265.898438 561.210938 258.550781 557.15625 C 251.199219 553.105469 251.792969 524.101562 229.339844 508.960938 C 206.878906 493.824219 202.890625 494.921875 202.296875 497.476562 C 201.703125 500.03125 201.125 505.328125 216.324219 519.945312 C 231.539062 534.5625 190.351562 512.285156 186.6875 508.691406 C 183.03125 505.101562 174.867188 495.660156 174.867188 495.660156 C 174.867188 495.660156 161.597656 514.570312 184.523438 553.523438 C 207.445312 592.472656 251.824219 588.363281 251.824219 588.363281 C 251.824219 588.363281 449.925781 691.519531 478.285156 681.570312 C 506.644531 671.617188 519.289062 620.65625 519.289062 620.65625 L 461.230469 585.84375 Z M 461.226562 585.84375 " fill-opacity="1" fill-rule="evenodd"/><path fill="#d18c84" d="M 461.226562 585.84375 L 454.46875 601.167969 L 513.5 638.050781 C 517.417969 628.203125 520.414062 619.066406 520.414062 619.066406 L 461.230469 585.84375 Z M 461.226562 585.84375 " fill-opacity="1" fill-rule="evenodd"/><path fill="#c9def3" d="M 495.207031 436.253906 L 436.289062 568.394531 L 542.390625 626.183594 L 540.1875 629.851562 L 432.460938 571.085938 L 430.835938 570.113281 L 431.605469 568.386719 L 491.296875 434.519531 Z M 495.207031 436.253906 " fill-opacity="1" fill-rule="nonzero"/><path fill="#d18b7d" d="M 355.003906 189.039062 C 355.003906 188.078125 354.222656 187.296875 353.261719 187.296875 C 352.296875 187.296875 351.519531 188.078125 351.519531 189.039062 C 351.519531 189.894531 349.9375 195.808594 346.476562 200.304688 C 344.679688 202.640625 342.382812 204.519531 339.585938 204.835938 C 337.925781 205.027344 336.761719 205.511719 336.015625 206.207031 L 336.015625 206.214844 C 334.847656 207.308594 334.671875 208.6875 335.226562 210.210938 C 335.621094 211.296875 336.4375 212.457031 337.5 213.617188 C 340.6875 217.078125 346.578125 220.949219 349.898438 222.28125 C 350.785156 222.636719 351.800781 222.207031 352.15625 221.316406 C 352.511719 220.425781 352.078125 219.414062 351.191406 219.054688 C 348.222656 217.863281 342.9375 214.378906 340.058594 211.261719 C 339.285156 210.417969 338.714844 209.644531 338.496094 209.027344 L 338.386719 208.753906 C 338.601562 208.554688 339.113281 208.390625 339.976562 208.292969 L 339.980469 208.292969 C 343.867188 207.855469 346.917969 205.433594 349.230469 202.429688 C 353.191406 197.277344 355.003906 190.109375 355.003906 189.039062 Z M 355.003906 189.039062 " fill-opacity="1" fill-rule="nonzero"/><path fill="#d18c84" d="M 444.78125 202.703125 C 445.210938 203.179688 445.941406 203.222656 446.421875 202.792969 C 446.890625 202.363281 446.933594 201.628906 446.507812 201.152344 C 446.472656 201.121094 436.679688 190.234375 431.582031 196.824219 C 431.488281 194.933594 431.601562 192.835938 432.039062 190.527344 C 434.113281 179.433594 445.875 188.050781 445.910156 188.074219 C 446.425781 188.453125 447.152344 188.351562 447.53125 187.835938 C 447.914062 187.324219 447.8125 186.59375 447.296875 186.210938 C 447.257812 186.183594 432.507812 175.394531 429.757812 190.089844 C 428.96875 194.308594 429.160156 197.925781 429.796875 200.898438 L 429.800781 200.9375 L 429.84375 201.105469 C 431.269531 207.507812 434.746094 210.878906 434.753906 210.890625 C 435.207031 211.34375 435.941406 211.34375 436.394531 210.894531 C 436.84375 210.445312 436.847656 209.707031 436.398438 209.253906 C 436.390625 209.246094 433.429688 206.382812 432.140625 200.828125 C 435.121094 191.964844 444.753906 202.675781 444.78125 202.703125 Z M 444.78125 202.703125 " fill-opacity="1" fill-rule="nonzero"/><path fill="#fafcfe" d="M 330.617188 182.648438 C 331.753906 182.648438 332.683594 183.570312 332.683594 184.710938 C 332.683594 185.851562 331.753906 186.777344 330.617188 186.777344 C 329.476562 186.777344 328.550781 185.855469 328.550781 184.710938 C 328.550781 183.570312 329.476562 182.648438 330.617188 182.648438 Z M 330.617188 182.648438 " fill-opacity="1" fill-rule="evenodd"/><path fill="#fafcfe" d="M 381.792969 182.367188 C 382.933594 182.367188 383.855469 183.292969 383.855469 184.429688 C 383.855469 185.570312 382.933594 186.496094 381.792969 186.496094 C 380.652344 186.496094 379.730469 185.574219 379.730469 184.429688 C 379.730469 183.285156 380.65625 182.367188 381.792969 182.367188 Z M 381.792969 182.367188 " fill-opacity="1" fill-rule="evenodd"/><path fill="#b9ddf5" d="M 543.839844 461.160156 C 543.789062 461.46875 527.265625 568.417969 467.027344 564.8125 L 467.199219 561.882812 C 524.769531 565.328125 540.894531 461.003906 540.941406 460.699219 L 543.835938 461.160156 Z M 543.839844 461.160156 " fill-opacity="1" fill-rule="nonzero"/><path fill="#b9ddf5" d="M 507.109375 1001.578125 C 507.074219 1002.277344 494.714844 1244.960938 445.871094 1316.75 L 442.839844 1314.683594 C 491.105469 1243.746094 503.410156 1002.085938 503.445312 1001.390625 Z M 429.582031 1397.785156 C 429.53125 1398.085938 409.1875 1501.945312 480.667969 1577.851562 L 477.992188 1580.363281 C 405.226562 1503.089844 425.925781 1397.433594 425.980469 1397.128906 Z M 429.582031 1397.785156 " fill-opacity="1" fill-rule="nonzero"/><path fill="#87c2ea" d="M 308.617188 984.789062 C 308.640625 985.457031 316.519531 1216.5625 377.101562 1314.753906 L 373.988281 1316.679688 C 312.886719 1217.652344 304.980469 985.585938 304.957031 984.917969 Z M 348.328125 1369.824219 C 348.394531 1370.046875 371.054688 1446.675781 348.347656 1538.027344 L 344.785156 1537.148438 C 367.257812 1446.742188 344.875 1371.050781 344.8125 1370.832031 Z M 348.328125 1369.824219 " fill-opacity="1" fill-rule="evenodd"/></svg>