<svg xmlns="http://www.w3.org/2000/svg" xmlns:xlink="http://www.w3.org/1999/xlink" width="1587" zoomAndPan="magnify" viewBox="0 0 1190.25 1683.749945" height="2245" preserveAspectRatio="xMidYMid meet" version="1.0"><defs><clipPath id="e34daa4076"><path d="M 802 1581 L 983 1581 L 983 1683.09375 L 802 1683.09375 Z M 802 1581 " clip-rule="nonzero"/></clipPath></defs><path fill="#1e1951" d="M 361.253906 1588.335938 C 361.253906 1588.335938 359.878906 1603.519531 357.46875 1628.699219 C 355.0625 1653.878906 361.253906 1679.058594 361.253906 1679.058594 L 413.1875 1679.058594 C 413.1875 1679.058594 414.90625 1668.320312 421.785156 1669.0625 C 428.664062 1669.804688 453.773438 1682.394531 476.132812 1682.761719 C 498.484375 1683.132812 526.347656 1682.761719 526.347656 1682.761719 C 526.347656 1682.761719 546.300781 1657.210938 522.566406 1639.4375 C 498.832031 1621.664062 490.234375 1636.84375 463.40625 1618.703125 C 436.582031 1600.554688 437.613281 1588.335938 437.613281 1588.335938 Z M 361.253906 1588.335938 " fill-opacity="1" fill-rule="evenodd"/><path fill="#1e1951" d="M 309.878906 1589.433594 C 309.878906 1589.433594 309.3125 1616.847656 322.039062 1629.8125 C 334.765625 1642.769531 339.582031 1666.304688 335.796875 1674.617188 C 332.015625 1682.929688 331.671875 1682.929688 331.671875 1682.929688 L 226.765625 1682.929688 C 226.765625 1682.929688 212.679688 1675.152344 217.820312 1635.628906 C 222.964844 1596.109375 228.136719 1588.335938 228.136719 1588.335938 L 309.878906 1589.429688 Z M 309.878906 1589.433594 " fill-opacity="1" fill-rule="evenodd"/><path fill="#29255c" d="M 217.808594 1596.113281 L 316.175781 1596.113281 L 353.414062 1008.132812 L 350.574219 1596.113281 L 446.882812 1596.113281 L 473.433594 827.148438 L 197.550781 827.148438 C 215.238281 1091.921875 222.332031 1327.074219 217.808594 1596.113281 Z M 217.808594 1596.113281 " fill-opacity="1" fill-rule="evenodd"/><path fill="#1e1951" d="M 349.6875 1067.035156 L 353.414062 1008.132812 L 353.132812 1067.035156 L 465.148438 1067.035156 L 473.433594 827.148438 L 381.050781 827.148438 L 198.253906 837.757812 C 203.421875 916.164062 207.660156 992.039062 210.929688 1067.035156 Z M 349.6875 1067.035156 " fill-opacity="1" fill-rule="evenodd"/><path fill="#d18c84" d="M 504.582031 638.5 L 468.089844 592.710938 C 468.089844 592.710938 473.519531 562.535156 487.953125 548.953125 C 502.390625 535.371094 509.789062 594.382812 509.789062 594.382812 Z M 504.582031 638.5 " fill-opacity="1" fill-rule="evenodd"/><path fill="#f3f4f4" d="M 257.605469 309.460938 L 174.449219 361.0625 C 174.449219 361.0625 151.257812 402.296875 142.371094 430.441406 C 133.488281 458.589844 107.171875 571.175781 107.171875 571.175781 L 205.046875 579.074219 L 168.03125 1013.621094 L 355.582031 1013.621094 L 365.453125 945.972656 L 369.894531 1013.621094 L 496.511719 1013.621094 L 473.519531 588.453125 L 498.238281 551.445312 L 491.660156 368.214844 L 408.894531 309.460938 L 362.054688 351.390625 Z M 257.605469 309.460938 " fill-opacity="1" fill-rule="evenodd"/><path fill="#80b4d5" d="M 395.898438 357.296875 L 291.753906 357.246094 L 366.640625 517.523438 Z M 395.898438 357.296875 " fill-opacity="1" fill-rule="evenodd"/><path fill="#e5e7e8" d="M 257.605469 309.460938 L 174.449219 361.0625 C 174.449219 361.0625 151.257812 402.296875 142.371094 430.441406 C 133.488281 458.589844 107.171875 571.175781 107.171875 571.175781 L 205.046875 579.074219 L 168.03125 1013.621094 L 355.582031 1013.621094 L 364.71875 951 L 375.53125 568.453125 L 347.28125 345.460938 Z M 257.605469 309.460938 " fill-opacity="1" fill-rule="evenodd"/><path fill="#80b4d5" d="M 352.597656 387.429688 L 348.347656 353.851562 L 286.347656 357.246094 L 340.101562 458.222656 Z M 352.597656 387.429688 " fill-opacity="1" fill-rule="evenodd"/><path fill="#f3f4f4" d="M 283.449219 278.554688 L 251.660156 309.953125 L 273.621094 429.941406 L 303.472656 414.386719 L 286.199219 445.496094 L 375.53125 568.453125 L 370.101562 527.46875 Z M 283.449219 278.554688 " fill-opacity="1" fill-rule="evenodd"/><path fill="#21628d" d="M 373.945312 385.671875 L 385.15625 465.992188 L 366.640625 517.523438 L 336.050781 429.636719 L 345.007812 387.550781 C 352.519531 393.257812 362.066406 395.03125 362.066406 395.03125 C 366.859375 392.757812 370.886719 389.542969 373.945312 385.671875 Z M 373.945312 385.671875 " fill-opacity="1" fill-rule="evenodd"/><path fill="#fac0b4" d="M 308.15625 193.503906 C 308.15625 193.503906 314.046875 250.605469 301.808594 271.964844 C 301.078125 273.238281 300.289062 274.382812 299.425781 275.382812 C 292.519531 283.382812 284.953125 290.882812 278.722656 296.714844 L 294.621094 328.445312 L 352.605469 368.21875 L 401.476562 310.9375 C 401.476562 310.9375 387.601562 310.171875 381.6875 280.863281 C 375.769531 251.554688 381.6875 233.90625 381.6875 233.90625 C 381.6875 233.90625 335.34375 251.554688 308.15625 193.503906 Z M 308.15625 193.503906 " fill-opacity="1" fill-rule="evenodd"/><path fill="#d18c84" d="M 309.3125 210.988281 C 309.839844 224.164062 309.8125 242.355469 306.949219 256.742188 C 330.519531 287.140625 361.371094 289.414062 382.894531 286.078125 C 382.464844 284.449219 382.0625 282.710938 381.6875 280.859375 C 375.769531 251.554688 381.6875 233.90625 381.6875 233.90625 C 381.6875 233.90625 344.441406 248.074219 317.144531 209.191406 C 314.339844 209.65625 311.71875 210.25 309.3125 210.988281 Z M 309.3125 210.988281 " fill-opacity="1" fill-rule="evenodd"/><path fill="#fac0b4" d="M 416.558594 108.828125 C 416.558594 108.828125 422.972656 168.085938 410.140625 204.625 C 397.3125 241.167969 380.035156 252.03125 359.3125 251.535156 C 338.578125 251.042969 311.191406 231.292969 304.03125 214.996094 C 296.878906 198.699219 297.371094 192.773438 297.371094 192.773438 C 297.371094 192.773438 286.511719 197.464844 281.082031 176.722656 C 275.65625 155.984375 266.277344 110.0625 281.082031 83.886719 C 295.890625 57.71875 338.828125 47.84375 381.273438 58.707031 C 423.71875 69.574219 416.554688 108.828125 416.554688 108.828125 Z M 416.558594 108.828125 " fill-opacity="1" fill-rule="evenodd"/><path fill="#d18c84" d="M 273.445312 112.636719 C 274.222656 102.046875 276.488281 92.015625 281.085938 83.890625 C 295.890625 57.71875 338.832031 47.84375 381.273438 58.707031 C 415.703125 67.519531 417.492188 95.011719 416.941406 105.082031 C 412.03125 106.511719 392.628906 111.203125 364.652344 105.6875 C 332.085938 99.269531 325.515625 94.230469 318.117188 108.308594 C 310.707031 122.386719 306.949219 138.09375 306.949219 138.09375 C 306.949219 138.09375 287.460938 127.410156 273.445312 112.636719 Z M 273.445312 112.636719 " fill-opacity="1" fill-rule="evenodd"/><path fill="#1c2732" d="M 435.6875 106.855469 C 429.507812 120.152344 417.8125 126.839844 417.710938 124.871094 C 417.609375 122.898438 414.253906 103.890625 409.40625 100.1875 C 404.554688 96.484375 410.640625 104.386719 382.261719 98.707031 C 353.882812 93.027344 338.585938 86.609375 325.265625 93.027344 C 304.113281 103.214844 307.710938 177.46875 307 177.46875 C 305.542969 177.46875 304.390625 174.902344 303.253906 171.457031 C 302.007812 167.652344 300.777344 162.769531 299.1875 159.109375 C 298.570312 157.671875 297.890625 156.417969 297.132812 155.496094 C 292.691406 150.058594 286.285156 152.558594 282.320312 158.949219 C 278.359375 165.339844 280.699219 175.222656 280.699219 175.222656 C 280.699219 175.222656 271.464844 154.753906 269.246094 131.296875 C 266.992188 107.496094 252.019531 59.660156 303.328125 51.90625 C 342.496094 0.441406 463.207031 30.640625 435.6875 106.855469 Z M 435.6875 106.855469 " fill-opacity="1" fill-rule="evenodd"/><path fill="#bd7a6c" d="M 370.890625 136.148438 C 370.917969 136.292969 379.894531 186.085938 378.035156 189.183594 C 376.503906 191.746094 358.546875 188.316406 358.5 188.308594 L 357.832031 191.96875 C 357.886719 191.976562 378.324219 195.9375 381.226562 191.09375 C 382.480469 189.007812 380.960938 175.964844 379.058594 163.039062 C 377.03125 149.238281 374.566406 135.570312 374.554688 135.492188 Z M 370.890625 136.148438 " fill-opacity="1" fill-rule="nonzero"/><path fill="#1e1851" d="M 395.738281 145.574219 C 392.574219 145.574219 390 149.65625 390 154.6875 C 390 159.722656 392.570312 163.800781 395.738281 163.800781 C 398.90625 163.800781 401.476562 159.722656 401.476562 154.6875 C 401.476562 149.65625 398.910156 145.574219 395.738281 145.574219 Z M 395.738281 145.574219 " fill-opacity="1" fill-rule="evenodd"/><path fill="#1e1851" d="M 341.082031 145.574219 C 337.910156 145.574219 335.34375 149.65625 335.34375 154.6875 C 335.34375 159.722656 337.910156 163.800781 341.082031 163.800781 C 344.25 163.800781 346.816406 159.722656 346.816406 154.6875 C 346.816406 149.65625 344.25 145.574219 341.082031 145.574219 Z M 341.082031 145.574219 " fill-opacity="1" fill-rule="evenodd"/><path fill="#1c2732" d="M 414.417969 133.550781 C 414.375 133.503906 398.699219 117.402344 384.085938 129.617188 L 388.265625 134.621094 C 398.25 126.277344 409.71875 138.058594 409.746094 138.09375 Z M 414.417969 133.550781 " fill-opacity="1" fill-rule="evenodd"/><path fill="#1c2732" d="M 325.914062 133.550781 C 325.960938 133.503906 341.632812 117.402344 356.246094 129.617188 L 352.066406 134.621094 C 342.085938 126.277344 330.613281 138.058594 330.578125 138.09375 Z M 325.914062 133.550781 " fill-opacity="1" fill-rule="evenodd"/><path fill="#bd7a6c" d="M 383.539062 207.988281 C 383.484375 208.003906 365.609375 213.863281 346.613281 202.253906 L 344.671875 205.433594 C 365.132812 217.933594 384.578125 211.5625 384.628906 211.546875 L 383.539062 207.992188 Z M 383.539062 207.988281 " fill-opacity="1" fill-rule="nonzero"/><path fill="#bd7a6c" d="M 343.664062 195.03125 C 343.632812 195.027344 333.855469 193.140625 332.082031 204.929688 L 335.769531 205.46875 C 336.964844 197.511719 343.0625 198.703125 343.074219 198.707031 Z M 343.664062 195.03125 " fill-opacity="1" fill-rule="nonzero"/><path fill="#bd7a6c" d="M 286.566406 164.425781 C 286.574219 164.410156 289.195312 159 291.863281 161.582031 L 292.144531 161.871094 C 293.386719 163.289062 294.628906 165.957031 295.484375 169.074219 C 286.855469 164.28125 286.640625 181.117188 286.640625 181.167969 L 289.433594 181.214844 C 289.433594 181.171875 289.617188 167.296875 296.339844 173.167969 L 296.347656 173.226562 C 297.011719 177.882812 296.625 182.660156 294.152344 185.226562 L 293.789062 185.574219 L 295.625 187.671875 C 295.816406 187.503906 296.003906 187.332031 296.167969 187.15625 C 299.324219 183.875 299.882812 178.226562 299.113281 172.832031 C 298.367188 167.550781 296.324219 162.410156 294.242188 160.035156 L 293.796875 159.566406 C 288.335938 154.300781 284.085938 163.15625 284.074219 163.179688 L 286.5625 164.425781 Z M 286.566406 164.425781 " fill-opacity="1" fill-rule="nonzero"/><path fill="#e5e7e8" d="M 296.3125 272.667969 L 277.3125 293.902344 L 328.394531 395.871094 L 358.625 347.976562 Z M 296.3125 272.667969 " fill-opacity="1" fill-rule="evenodd"/><path fill="#e5e7e8" d="M 393.304688 289.953125 L 358.625 347.976562 L 384.691406 373.957031 L 393.304688 382.542969 L 401.476562 303.039062 Z M 393.304688 289.953125 " fill-opacity="1" fill-rule="evenodd"/><path fill="#2b74a7" d="M 380.34375 369.625 C 379.375 380.609375 372.53125 390.0625 362.066406 395.03125 C 362.066406 395.03125 344.699219 391.804688 338.371094 380.042969 L 358.578125 347.933594 Z M 380.34375 369.625 " fill-opacity="1" fill-rule="evenodd"/><path fill="#f7f9fa" d="M 397.386719 296.496094 L 366.640625 517.523438 L 370.101562 527.46875 L 427.859375 411.980469 L 407.125 395.03125 L 436.738281 395.03125 L 418.160156 309.457031 Z M 397.386719 296.496094 " fill-opacity="1" fill-rule="evenodd"/><path fill="#fac0b4" d="M 512.742188 350.195312 C 512.742188 350.195312 511.074219 341.558594 514.03125 327.976562 C 516.992188 314.394531 523.160156 312.296875 519.953125 307.238281 C 516.746094 302.175781 503.421875 304.152344 496.511719 317.855469 C 489.601562 331.558594 490.285156 347.480469 490.285156 347.480469 C 490.285156 347.480469 462.648438 349.949219 454.257812 352.914062 C 444.996094 356.183594 444.753906 368.214844 450.546875 370.078125 C 443.515625 371.496094 440.824219 384.390625 447.414062 388.023438 C 440.195312 388.023438 436.304688 402.597656 442.070312 406.246094 C 442.070312 406.246094 436.167969 408.453125 438.464844 413.984375 C 440.765625 419.515625 444.144531 423.488281 457.964844 431.386719 C 471.785156 439.289062 475.238281 438.550781 479.1875 446.699219 C 483.136719 454.84375 487.578125 489.871094 486.59375 517.523438 C 485.609375 545.179688 482.644531 599.074219 497.449219 628.207031 C 512.257812 657.339844 554.703125 665.242188 556.671875 602.53125 C 558.648438 539.816406 524.375 443.867188 524.375 433.5 C 524.375 423.132812 532.003906 425.054688 528.296875 395.03125 C 524.597656 365.011719 511.515625 354.886719 512.742188 350.199219 Z M 512.742188 350.195312 " fill-opacity="1" fill-rule="evenodd"/><path fill="#fac0b4" d="M 120.238281 572.304688 C 118.246094 582.359375 115.558594 597.082031 115.253906 604.757812 C 114.761719 617.101562 155.226562 802.273438 155.722656 816.59375 C 156.214844 830.914062 147.824219 858.570312 151.777344 871.160156 C 155.722656 883.753906 158.4375 894.617188 167.8125 896.59375 C 177.1875 898.566406 194.410156 902.972656 201.101562 899.785156 C 207.789062 896.59375 205.074219 883.507812 210.011719 877.582031 C 214.945312 871.65625 222.101562 859.554688 220.625 843.507812 C 219.144531 827.460938 207.34375 814.652344 202.753906 803.773438 C 198.164062 792.894531 183.695312 617.765625 184.105469 612.410156 C 184.519531 607.058594 189.738281 589.8125 194.382812 578.214844 Z M 120.238281 572.304688 " fill-opacity="1" fill-rule="evenodd"/><path fill="#d18c84" d="M 120.238281 572.304688 C 119.34375 576.808594 118.3125 582.246094 117.421875 587.570312 C 141.53125 589.191406 173.398438 591.359375 189.253906 592.539062 C 190.863281 587.582031 192.664062 582.511719 194.382812 578.214844 Z M 120.238281 572.304688 " fill-opacity="1" fill-rule="evenodd"/><path fill="#dba684" d="M 206.855469 885.996094 C 207.441406 882.792969 208.230469 879.71875 210.011719 877.582031 C 210.820312 876.609375 211.691406 875.46875 212.570312 874.175781 C 209.082031 870.65625 203.683594 863.046875 196.515625 846.589844 C 196.515625 846.589844 200.160156 883.675781 206.855469 885.996094 Z M 206.855469 885.996094 " fill-opacity="1" fill-rule="evenodd"/><path fill="#f3f4f4" d="M 228.707031 788.589844 L 343.300781 792.917969 C 343.300781 792.917969 341.886719 881.484375 339.484375 881.214844 C 337.082031 880.945312 281.339844 911.292969 281.339844 911.292969 L 224.722656 880.910156 L 228.710938 788.589844 Z M 228.707031 788.589844 " fill-opacity="1" fill-rule="evenodd"/><path fill="#b2babb" d="M 208.492188 572.503906 L 222.671875 443.105469 L 218.96875 442.710938 L 204.785156 572.109375 Z M 208.492188 572.503906 " fill-opacity="1" fill-rule="nonzero"/><path fill="#b2babb" d="M 472.660156 581.515625 L 464.542969 465.144531 L 460.828125 465.390625 L 468.941406 581.765625 Z M 472.660156 581.515625 " fill-opacity="1" fill-rule="nonzero"/><path fill="#d18c84" d="M 488.625 366.359375 L 455.070312 366.355469 L 455.070312 370.074219 L 488.625 370.078125 Z M 488.625 366.359375 " fill-opacity="1" fill-rule="nonzero"/><path fill="#d18c84" d="M 482.789062 387.957031 L 450.957031 384.390625 L 450.546875 388.089844 L 482.378906 391.65625 Z M 482.789062 387.957031 " fill-opacity="1" fill-rule="nonzero"/><path fill="#d18c84" d="M 476.621094 410.621094 L 448.433594 402.597656 L 447.414062 406.179688 L 475.601562 414.207031 Z M 476.621094 410.621094 " fill-opacity="1" fill-rule="nonzero"/><path fill="#6560a1" d="M 317.816406 1160.789062 L 275.023438 1581.863281 L 278.722656 1582.316406 L 321.519531 1161.246094 Z M 317.816406 1160.789062 " fill-opacity="1" fill-rule="nonzero"/><path fill="#6560a1" d="M 373.675781 1089.65625 L 397.570312 1588.4375 L 401.285156 1588.234375 L 377.386719 1089.453125 Z M 373.675781 1089.65625 " fill-opacity="1" fill-rule="nonzero"/><path fill="#394c5f" d="M 384.808594 292.207031 C 392.472656 295.40625 397.785156 299.148438 402.972656 304.085938 C 414.839844 315.367188 420.882812 330.746094 423.023438 347.359375 C 425.222656 364.390625 423.355469 382.753906 419.457031 399.484375 C 413.867188 423.484375 404.261719 443.800781 396.558594 451.910156 L 403.882812 458.878906 C 412.621094 449.675781 423.328125 427.480469 429.316406 401.78125 C 433.445312 384.042969 435.410156 364.457031 433.039062 346.089844 C 430.605469 327.304688 423.664062 309.808594 409.941406 296.757812 C 402.113281 289.316406 394.050781 283.980469 381.542969 280.136719 C 382.472656 285.144531 383.355469 289 384.808594 292.207031 Z M 384.808594 292.207031 " fill-opacity="1" fill-rule="nonzero"/><path fill="#b2babb" d="M 393.292969 445.214844 C 379.066406 445.214844 367.53125 456.753906 367.53125 470.992188 C 367.53125 485.226562 379.066406 496.761719 393.292969 496.761719 C 407.519531 496.761719 419.054688 485.226562 419.054688 470.992188 C 419.054688 456.757812 407.515625 445.214844 393.292969 445.214844 Z M 393.292969 445.214844 " fill-opacity="1" fill-rule="evenodd"/><path fill="#f3f4f4" d="M 393.292969 448.46875 C 380.863281 448.46875 370.785156 458.550781 370.785156 470.992188 C 370.785156 483.429688 380.863281 493.511719 393.292969 493.511719 C 405.722656 493.511719 415.804688 483.429688 415.804688 470.992188 C 415.804688 458.550781 405.722656 448.46875 393.292969 448.46875 Z M 393.292969 448.46875 " fill-opacity="1" fill-rule="evenodd"/><path fill="#b2babb" d="M 393.292969 457.089844 C 385.621094 457.089844 379.398438 463.3125 379.398438 470.992188 C 379.398438 478.671875 385.621094 484.890625 393.292969 484.890625 C 400.96875 484.890625 407.183594 478.664062 407.183594 470.992188 C 407.183594 463.316406 400.964844 457.089844 393.292969 457.089844 Z M 393.292969 457.089844 " fill-opacity="1" fill-rule="evenodd"/><path fill="#394c5f" d="M 304.308594 266.476562 C 280.398438 272.472656 241.515625 296.996094 250.402344 394.378906 L 260.457031 393.464844 C 255.335938 337.351562 266.824219 307.695312 281.136719 292.046875 L 281.117188 292.011719 L 281.160156 292.019531 C 288.3125 284.222656 292.148438 278.261719 298.984375 275.890625 C 300.789062 274.25 302.691406 271.769531 304.308594 266.476562 Z M 304.308594 266.476562 " fill-opacity="1" fill-rule="nonzero"/><path fill="#b2babb" d="M 284.710938 437.003906 C 284.757812 437.238281 300.527344 518.75 296.761719 535.507812 C 293.480469 550.109375 286.183594 546.136719 286.160156 546.125 L 284.4375 549.792969 C 284.46875 549.808594 296.277344 556.097656 300.703125 536.390625 C 304.648438 518.832031 288.714844 436.464844 288.667969 436.226562 Z M 284.710938 437.003906 " fill-opacity="1" fill-rule="nonzero"/><path fill="#b2babb" d="M 245.882812 450.996094 C 249.152344 460.023438 264.378906 496.066406 281.496094 520.132812 C 287.433594 528.496094 293.640625 535.453125 299.710938 539.429688 C 306.257812 543.730469 312.6875 544.671875 318.554688 540.5 C 321.359375 538.503906 323.972656 535.332031 326.320312 530.792969 L 322.730469 528.925781 C 320.6875 532.882812 318.5 535.582031 316.226562 537.199219 C 311.949219 540.238281 307.046875 539.410156 301.925781 536.050781 C 296.3125 532.371094 290.457031 525.777344 284.789062 517.804688 C 267.941406 494.105469 252.910156 458.523438 249.679688 449.605469 L 245.878906 450.996094 Z M 245.882812 450.996094 " fill-opacity="1" fill-rule="nonzero"/><path fill="#2d3c4b" d="M 291.726562 439.320312 C 291.726562 439.261719 292 417.441406 282.675781 401.945312 C 277.121094 392.710938 270.144531 387.847656 263.296875 386.539062 L 263.273438 386.53125 C 259.0625 385.726562 254.914062 386.269531 251.148438 387.96875 C 247.472656 389.628906 244.21875 392.382812 241.683594 396.050781 C 236.753906 403.203125 234.503906 413.945312 237.414062 426.8125 C 240.398438 440.011719 246.183594 455.691406 246.203125 455.734375 L 253.757812 452.828125 C 253.738281 452.785156 248.125 437.566406 245.285156 425.019531 C 242.921875 414.585938 244.578125 406.117188 248.335938 400.667969 C 250.042969 398.195312 252.167969 396.375 254.492188 395.324219 C 256.730469 394.3125 259.222656 393.996094 261.78125 394.480469 C 266.515625 395.394531 271.511719 399.066406 275.765625 406.132812 C 283.878906 419.625 283.652344 439.371094 283.65625 439.429688 Z M 291.726562 439.320312 " fill-opacity="1" fill-rule="nonzero"/><path fill="#ffffff" d="M 284.914062 543.15625 C 281 541.011719 277.222656 542.433594 276.191406 545.367188 C 275.15625 548.300781 273.808594 550.984375 276.5 553.179688 C 281.359375 557.144531 297.0625 549.828125 284.914062 543.15625 Z M 284.914062 543.15625 " fill-opacity="1" fill-rule="evenodd"/><path fill="#ffffff" d="M 321.335938 534.546875 C 321.335938 534.546875 319.082031 528.566406 321.996094 524.195312 C 326.867188 516.894531 336.363281 523.597656 332.625 529.976562 C 330.144531 534.199219 323.21875 537.417969 321.335938 534.546875 Z M 321.335938 534.546875 " fill-opacity="1" fill-rule="evenodd"/><path fill="#fafcfe" d="M 397.785156 148.277344 C 396.65625 148.277344 395.738281 149.195312 395.738281 150.328125 C 395.738281 151.460938 396.65625 152.378906 397.785156 152.378906 C 398.921875 152.378906 399.832031 151.460938 399.832031 150.328125 C 399.832031 149.199219 398.921875 148.277344 397.785156 148.277344 Z M 397.785156 148.277344 " fill-opacity="1" fill-rule="evenodd"/><path fill="#fafcfe" d="M 342.714844 148.277344 C 341.582031 148.277344 340.664062 149.195312 340.664062 150.328125 C 340.664062 151.460938 341.582031 152.378906 342.714844 152.378906 C 343.84375 152.378906 344.761719 151.460938 344.761719 150.328125 C 344.761719 149.199219 343.847656 148.277344 342.714844 148.277344 Z M 342.714844 148.277344 " fill-opacity="1" fill-rule="evenodd"/><path fill="#b2babb" d="M 229.0625 611.742188 C 229.214844 612.046875 282.351562 717.167969 336.167969 768.238281 L 338.597656 765.679688 C 285.226562 715.035156 232.363281 610.457031 232.207031 610.152344 Z M 229.0625 611.742188 " fill-opacity="1" fill-rule="nonzero"/><path fill="#b2babb" d="M 450.410156 672.296875 C 450.445312 672.59375 462.277344 774.464844 413.25 859.527344 L 416.300781 861.277344 C 465.914062 775.203125 453.949219 672.222656 453.914062 671.925781 Z M 450.410156 672.296875 " fill-opacity="1" fill-rule="nonzero"/><path fill="#523c2e" d="M 803.632812 1568.394531 C 803.632812 1568.394531 771.085938 1601.617188 752.863281 1605.417969 C 734.636719 1609.21875 705.734375 1599.835938 702.660156 1623.679688 C 699.578125 1647.53125 719.292969 1665.917969 741.480469 1664.433594 C 763.664062 1662.945312 813.09375 1665.253906 813.09375 1665.253906 L 900.082031 1606.300781 L 900.441406 1569.351562 Z M 803.632812 1568.394531 " fill-opacity="1" fill-rule="evenodd"/><path fill="#6d2f13" d="M 917.40625 197.039062 C 926.382812 205.371094 946.929688 226.519531 959.25 255.769531 C 975.351562 294.019531 958.472656 333.933594 958.472656 333.933594 L 899.894531 308.625 C 899.894531 308.625 884.085938 275.972656 898.480469 211.09375 L 898.71875 210.023438 C 903.738281 206.453125 911.472656 201.003906 917.40625 197.039062 Z M 917.40625 197.039062 " fill-opacity="1" fill-rule="evenodd"/><path fill="#80b4d5" d="M 909.203125 171.984375 L 918.96875 198.511719 L 898.328125 211.792969 C 898.328125 211.792969 887.035156 189.078125 888.296875 189.367188 C 889.554688 189.652344 890.160156 176.625 909.203125 171.984375 Z M 909.203125 171.984375 " fill-opacity="1" fill-rule="evenodd"/><path fill="#d18c84" d="M 766.597656 184 C 739.464844 176.65625 744.101562 130.65625 759.207031 133.054688 C 762.78125 133.621094 766.597656 184 766.597656 184 Z M 766.597656 184 " fill-opacity="1" fill-rule="evenodd"/><path fill="#562910" d="M 760.859375 68.25 C 760.859375 68.25 742.085938 89.949219 748.292969 116.164062 C 754.5 142.378906 760.058594 149.828125 760.058594 149.828125 C 760.058594 149.828125 762.023438 99.28125 769.316406 80.714844 C 776.613281 62.148438 760.859375 68.25 760.859375 68.25 Z M 760.859375 68.25 " fill-opacity="1" fill-rule="evenodd"/><path fill="#6d2f13" d="M 811.070312 26.671875 C 805.664062 26.90625 778.429688 10.429688 761.238281 30.441406 C 744.042969 50.457031 743.578125 68.929688 767.605469 82.242188 C 791.628906 95.558594 838.265625 88.523438 847.21875 92.230469 C 856.175781 95.933594 869.285156 100.9375 872.796875 122.191406 C 876.3125 143.445312 876.9375 148.984375 876.9375 148.984375 L 889.5 193.148438 C 889.5 193.148438 908.980469 184.839844 920.425781 148.566406 C 931.871094 112.292969 921.203125 70.402344 900.097656 48.304688 C 879 26.207031 829.597656 20.96875 811.070312 26.671875 Z M 811.070312 26.671875 " fill-opacity="1" fill-rule="evenodd"/><path fill="#6dadd8" d="M 721.078125 852.933594 L 750.199219 1242.097656 L 792.425781 1571.128906 L 877.605469 1576.597656 L 856.355469 854.269531 Z M 721.078125 852.933594 " fill-opacity="1" fill-rule="evenodd"/><path fill="#649ec4" d="M 721.078125 852.933594 L 723.855469 890.039062 L 857.445312 891.363281 L 856.355469 854.269531 Z M 721.078125 852.933594 " fill-opacity="1" fill-rule="evenodd"/><path fill="#fac0b4" d="M 875.023438 210.261719 C 875.023438 210.261719 870.496094 265.253906 884.519531 284.722656 C 898.535156 304.191406 928.035156 310.457031 923.207031 310.40625 C 918.371094 310.359375 813.792969 395.171875 813.792969 395.171875 L 764.492188 316.207031 C 764.492188 316.207031 797.871094 309.449219 801.53125 284.46875 C 805.1875 259.496094 805.160156 233.054688 805.160156 233.054688 C 805.160156 233.054688 847.039062 252.132812 875.023438 210.261719 Z M 875.023438 210.261719 " fill-opacity="1" fill-rule="evenodd"/><path fill="#d18c84" d="M 875.023438 210.261719 C 875.023438 210.261719 874.027344 222.40625 874.421875 237.296875 C 860.746094 252.4375 837.960938 263.425781 815.765625 257.589844 C 811.898438 256.574219 808.136719 255.117188 804.523438 253.25 C 805.167969 241.449219 805.160156 233.054688 805.160156 233.054688 C 805.160156 233.054688 847.039062 252.132812 875.019531 210.261719 Z M 875.023438 210.261719 " fill-opacity="1" fill-rule="evenodd"/><g clip-path="url(#e34daa4076)"><path fill="#604635" d="M 885.535156 1582.851562 C 885.535156 1582.851562 845.363281 1621.683594 832.777344 1628.949219 C 820.203125 1636.214844 800.734375 1650.234375 802.816406 1670.15625 C 804.890625 1690.078125 868.519531 1686.722656 876.542969 1683.957031 C 884.5625 1681.199219 953.070312 1651.742188 966.746094 1648.464844 C 980.417969 1645.191406 987.683594 1600.265625 977.566406 1588.875 C 967.445312 1577.488281 885.535156 1582.851562 885.535156 1582.851562 Z M 885.535156 1582.851562 " fill-opacity="1" fill-rule="evenodd"/></g><path fill="#87c2ea" d="M 1007.550781 855.765625 C 989.132812 878.324219 985.273438 1269.4375 980.632812 1278.488281 C 975.996094 1287.539062 977.566406 1588.875 977.566406 1588.875 C 977.566406 1588.875 875.109375 1602.640625 877.527344 1587.886719 C 879.949219 1573.128906 856.75 1224.261719 856.75 1224.261719 L 827.933594 853.988281 Z M 1007.550781 855.765625 " fill-opacity="1" fill-rule="evenodd"/><path fill="#6dadd8" d="M 1007.550781 855.765625 C 1004.554688 859.433594 1001.953125 872.871094 999.660156 892.769531 L 830.824219 891.101562 L 827.933594 853.988281 Z M 1007.550781 855.765625 " fill-opacity="1" fill-rule="evenodd"/><path fill="#fac0b4" d="M 770.773438 77.441406 C 769.332031 79.261719 759.707031 102.035156 760.03125 151.171875 C 760.359375 200.308594 784.445312 234.683594 815.910156 242.328125 C 847.375 249.976562 880.027344 226.367188 886.230469 204.878906 C 892.425781 183.386719 893.644531 175.777344 893.644531 175.777344 C 913.089844 179.460938 913.734375 126.929688 890.554688 130.980469 C 883.070312 132.289062 876.117188 138.726562 876.9375 143.570312 C 876.9375 143.570312 873.835938 114.113281 867.960938 105.648438 C 862.078125 97.1875 855.621094 83.203125 823.757812 86.332031 C 791.886719 89.457031 770.773438 77.4375 770.773438 77.4375 Z M 770.773438 77.441406 " fill-opacity="1" fill-rule="evenodd"/><path fill="#1e1851" d="M 786.5 136.582031 C 790.394531 136.621094 793.511719 141.09375 793.460938 146.570312 C 793.40625 152.046875 790.199219 156.453125 786.300781 156.414062 C 782.398438 156.378906 779.285156 151.90625 779.335938 146.429688 C 779.386719 140.953125 782.597656 136.546875 786.5 136.585938 Z M 786.5 136.582031 " fill-opacity="1" fill-rule="evenodd"/><path fill="#1e1851" d="M 837.152344 136.582031 C 841.046875 136.625 844.167969 141.09375 844.113281 146.570312 C 844.058594 152.046875 840.851562 156.453125 836.949219 156.414062 C 833.050781 156.378906 829.933594 151.90625 829.988281 146.429688 C 830.042969 140.953125 833.25 136.546875 837.152344 136.585938 Z M 837.152344 136.582031 " fill-opacity="1" fill-rule="evenodd"/><path fill="#d18b7d" d="M 791.714844 198.691406 C 791.03125 198.085938 790.808594 196.765625 791.21875 195.753906 C 791.632812 194.742188 792.519531 194.414062 793.199219 195.019531 L 793.351562 195.15625 L 793.355469 195.15625 C 794.898438 196.539062 804.777344 205.382812 823.824219 195.996094 C 824.585938 195.625 825.40625 196.234375 825.660156 197.359375 C 825.90625 198.480469 825.5 199.703125 824.738281 200.070312 C 804.425781 210.082031 793.558594 200.34375 791.859375 198.824219 L 791.859375 198.820312 Z M 791.714844 198.691406 " fill-opacity="1" fill-rule="nonzero"/><path fill="#6d2f13" d="M 799.1875 125.917969 C 799.800781 126.925781 799.476562 128.25 798.46875 128.863281 C 797.457031 129.480469 796.136719 129.15625 795.519531 128.144531 C 795.503906 128.121094 789.222656 118.136719 776.332031 127.816406 C 775.382812 128.523438 774.039062 128.332031 773.332031 127.382812 C 772.621094 126.4375 772.824219 125.089844 773.765625 124.382812 C 790.386719 111.898438 799.160156 125.878906 799.1875 125.917969 Z M 853.578125 126.453125 C 854.191406 127.464844 853.871094 128.789062 852.859375 129.402344 C 851.847656 130.019531 850.523438 129.695312 849.910156 128.683594 C 849.894531 128.660156 843.613281 118.675781 830.722656 128.351562 C 829.773438 129.0625 828.433594 128.867188 827.726562 127.921875 C 827.015625 126.972656 827.214844 125.628906 828.15625 124.921875 C 844.78125 112.4375 853.546875 126.417969 853.578125 126.453125 Z M 853.578125 126.453125 " fill-opacity="1" fill-rule="evenodd"/><path fill="#87c2ea" d="M 776.671875 308.464844 L 722.929688 328.890625 L 664.789062 447.140625 L 708.417969 622.679688 L 681.484375 869.15625 L 1039 872.691406 C 1031.503906 826.066406 1024 779.441406 1016.507812 732.824219 C 1009.011719 686.203125 1001.511719 639.578125 994.015625 592.957031 L 994.152344 589.890625 L 1012.296875 599.175781 C 1016.90625 460.769531 1050.902344 418.929688 958.472656 321.480469 L 899.210938 294.5625 L 814 373.855469 L 776.667969 308.464844 Z M 776.671875 308.464844 " fill-opacity="1" fill-rule="evenodd"/><path fill="#6dadd8" d="M 725.949219 441.433594 C 725.949219 441.433594 798.613281 467.246094 852.761719 465.261719 C 906.902344 463.273438 903.082031 474.722656 888.117188 501.457031 C 873.148438 528.1875 886.832031 551.542969 839.777344 560.628906 C 792.722656 569.710938 769.363281 575.550781 751.851562 555.4375 C 734.335938 535.324219 695.761719 438.375 725.949219 441.433594 Z M 725.949219 441.433594 " fill-opacity="1" fill-rule="evenodd"/><path fill="#6dadd8" d="M 672.421875 477.851562 L 694.683594 567.402344 C 706.46875 569.941406 715.277344 569.128906 715.277344 569.128906 C 715.277344 569.128906 913.371094 672.285156 941.734375 662.332031 C 961.167969 655.511719 975.960938 621.078125 983.355469 600.078125 L 996.144531 606.191406 L 994.015625 592.957031 L 994.15625 589.886719 C 987.703125 586.152344 964.148438 571 931.035156 555.386719 L 912.296875 594.667969 C 912.296875 594.667969 729.351562 541.972656 722 537.921875 C 714.652344 533.871094 715.246094 504.863281 692.789062 489.726562 C 682.769531 482.972656 676.429688 479.453125 672.421875 477.847656 Z M 672.421875 477.851562 " fill-opacity="1" fill-rule="evenodd"/><path fill="#80b4d5" d="M 646.644531 324.238281 L 655.832031 321.25 L 678.257812 388.394531 L 666.890625 386.414062 Z M 646.644531 324.238281 " fill-opacity="1" fill-rule="evenodd"/><path fill="#21628d" d="M 644.214844 316.789062 L 653.402344 313.796875 L 663.304688 344.195312 L 654.117188 347.183594 Z M 644.214844 316.789062 " fill-opacity="1" fill-rule="evenodd"/><path fill="#fac0b4" d="M 629.941406 379.96875 C 622.777344 378.71875 635.871094 368.535156 641.5625 360.929688 C 647.894531 352.46875 652.390625 357.910156 661.832031 352.03125 C 671.261719 346.15625 691.902344 358.015625 694.609375 371.402344 C 697.320312 384.789062 694.378906 391.210938 694.378906 391.210938 C 686.410156 391.039062 638.554688 381.46875 629.941406 379.96875 Z M 629.941406 379.96875 " fill-opacity="1" fill-rule="evenodd"/><path fill="#deedf9" d="M 899.210938 294.558594 C 899.210938 294.558594 905.988281 296.480469 914.539062 301.242188 C 903.796875 310.578125 828.660156 384.007812 825.5 385.714844 C 822.300781 381.179688 816.519531 371.511719 816.519531 371.511719 L 899.210938 294.5625 Z M 899.210938 294.558594 " fill-opacity="1" fill-rule="evenodd"/><path fill="#c9def3" d="M 828.183594 383.441406 C 826.734375 384.761719 825.796875 385.554688 825.5 385.714844 C 822.300781 381.179688 816.519531 371.511719 816.519531 371.511719 L 819.117188 369.097656 Z M 828.183594 383.441406 " fill-opacity="1" fill-rule="evenodd"/><path fill="#b9ddf5" d="M 739.789062 788.546875 C 740.175781 788.523438 874.660156 781.554688 971.273438 701.332031 L 975.378906 706.285156 C 877.125 787.867188 740.523438 794.949219 740.132812 794.972656 Z M 739.789062 788.546875 " fill-opacity="1" fill-rule="nonzero"/><path fill="#b9ddf5" d="M 792.75 830.144531 L 794.582031 830.0625 C 809.117188 829.445312 896.347656 825.753906 970.589844 755.476562 L 975 760.15625 C 899.019531 832.074219 809.726562 835.855469 794.847656 836.484375 C 794.195312 836.511719 793.710938 836.53125 793.222656 836.570312 L 792.746094 830.144531 Z M 792.75 830.144531 " fill-opacity="1" fill-rule="nonzero"/><path fill="#586674" d="M 879.398438 273.894531 C 902.910156 281.320312 939.871094 299.960938 926.871094 342 C 921.773438 358.484375 914.605469 372.683594 907 384.550781 L 899.546875 380.328125 C 906.855469 368.988281 913.761719 355.351562 918.671875 339.46875 C 928.191406 308.699219 904.558594 292.640625 884.5625 284.78125 L 884.519531 284.71875 C 882.421875 281.808594 880.742188 278.089844 879.398438 273.894531 Z M 879.398438 273.894531 " fill-opacity="1" fill-rule="nonzero"/><path fill="#deedf9" d="M 776.671875 308.46875 L 825.5 385.714844 L 813.792969 395.171875 L 759.484375 312.269531 Z M 776.671875 308.46875 " fill-opacity="1" fill-rule="evenodd"/><path fill="#586674" d="M 800.6875 289.441406 C 780.089844 302.132812 747.867188 338.664062 778.648438 438.136719 L 770.472656 440.671875 C 735.09375 326.359375 780.238281 289.601562 802.285156 278.855469 C 802.054688 280.726562 801.804688 282.605469 801.53125 284.472656 C 801.28125 286.175781 800.996094 287.832031 800.6875 289.441406 Z M 800.6875 289.441406 " fill-opacity="1" fill-rule="nonzero"/><path fill="#b2babb" d="M 774.75 420.375 C 785.257812 420.480469 793.691406 429.082031 793.585938 439.589844 C 793.480469 450.101562 784.882812 458.535156 774.371094 458.429688 C 763.863281 458.328125 755.433594 449.726562 755.535156 439.214844 C 755.644531 428.703125 764.242188 420.273438 774.75 420.375 Z M 774.75 420.375 " fill-opacity="1" fill-rule="evenodd"/><path fill="#f3f4f4" d="M 774.730469 422.054688 C 784.316406 422.152344 792.003906 429.992188 791.902344 439.574219 C 791.808594 449.15625 783.96875 456.847656 774.390625 456.753906 C 764.808594 456.65625 757.125 448.8125 757.21875 439.230469 C 757.3125 429.652344 765.152344 421.964844 774.730469 422.058594 Z M 774.730469 422.054688 " fill-opacity="1" fill-rule="evenodd"/><path fill="#f3f4f4" d="M 774.640625 431.296875 C 779.121094 431.34375 782.710938 435.007812 782.667969 439.484375 C 782.625 443.960938 778.957031 447.558594 774.484375 447.511719 C 770.007812 447.46875 766.410156 443.800781 766.453125 439.324219 C 766.503906 434.84375 770.164062 431.253906 774.640625 431.296875 Z M 774.640625 431.296875 " fill-opacity="1" fill-rule="evenodd"/><path fill="#b2babb" d="M 774.65625 429.472656 C 780.144531 429.527344 784.546875 434.015625 784.488281 439.503906 C 784.4375 444.988281 779.953125 449.390625 774.460938 449.335938 C 768.976562 449.28125 764.578125 444.792969 764.632812 439.304688 C 764.6875 433.820312 769.175781 429.417969 774.65625 429.472656 Z M 774.65625 429.472656 " fill-opacity="1" fill-rule="evenodd"/><path fill="#f3f4f4" d="M 854.933594 414.554688 C 854.816406 414.78125 816.5625 494.066406 830.308594 521.988281 C 843.636719 549.039062 868.832031 538.722656 868.90625 538.695312 L 870.515625 542.671875 C 870.433594 542.703125 841.554688 554.527344 826.464844 523.878906 C 811.792969 494.09375 850.957031 412.917969 851.074219 412.6875 L 854.929688 414.554688 Z M 854.933594 414.554688 " fill-opacity="1" fill-rule="nonzero"/><path fill="#ffffff" d="M 864.226562 536.042969 C 864.050781 536.855469 866.972656 547.328125 866.972656 547.328125 C 885.929688 547.128906 883.777344 527.574219 864.226562 536.042969 Z M 864.226562 536.042969 " fill-opacity="1" fill-rule="evenodd"/><path fill="#e5e7e8" d="M 923.207031 440.128906 C 923.101562 440.363281 886.464844 522.695312 854.242188 530.738281 C 821.109375 539.011719 811.480469 509.347656 811.453125 509.265625 L 815.511719 507.894531 C 815.535156 507.96875 823.941406 533.886719 853.210938 526.582031 C 883.386719 519.046875 919.191406 438.609375 919.292969 438.375 Z M 923.207031 440.128906 " fill-opacity="1" fill-rule="nonzero"/><path fill="#ffffff" d="M 820.433594 509.648438 C 820.078125 510.390625 811.332031 516.65625 811.332031 516.65625 C 796.832031 504.742188 810.617188 491.003906 820.433594 509.648438 Z M 820.433594 509.648438 " fill-opacity="1" fill-rule="evenodd"/><path fill="#586674" d="M 863.5625 396.339844 C 858.222656 408.121094 856.09375 413.792969 855.246094 416.5 L 849.460938 414.640625 C 850.597656 410.691406 852.9375 404.199219 857.699219 393.6875 C 874.785156 356 939.21875 376.007812 930.597656 417.207031 C 928.25 428.449219 925.066406 437.570312 923.660156 441.4375 L 917.871094 439.566406 C 918.789062 436.882812 921.648438 428.53125 924.296875 415.886719 C 930.839844 384.636719 876.601562 367.5625 863.558594 396.34375 Z M 863.5625 396.339844 " fill-opacity="1" fill-rule="nonzero"/><path fill="#f3f4f4" d="M 621.238281 373.699219 L 762.863281 398.410156 L 802.300781 650.089844 C 802.097656 650.46875 800.199219 654.097656 800.015625 654.4375 C 752.269531 642.917969 704.628906 631.191406 656.894531 619.671875 C 644.273438 539.0625 631.566406 458.660156 618.949219 378.046875 C 619.082031 377.828125 621.109375 373.933594 621.238281 373.699219 Z M 621.238281 373.699219 " fill-opacity="1" fill-rule="evenodd"/><path fill="#2b74a7" d="M 618.941406 378.046875 L 760.570312 402.757812 L 800 654.4375 L 656.785156 619.878906 Z M 618.941406 378.046875 " fill-opacity="1" fill-rule="evenodd"/><path fill="#206492" d="M 784.503906 555.519531 L 792.613281 607.265625 C 746.277344 585.347656 706.660156 564.71875 706.660156 564.71875 C 706.660156 564.71875 667.480469 568.34375 643.730469 536.46875 L 634.5 477.472656 C 636.9375 480.214844 639.753906 483.3125 641.523438 485.046875 C 645.183594 488.636719 661.988281 500.03125 664.296875 496.925781 C 666.597656 493.824219 656.539062 476.382812 657.128906 473.828125 C 657.722656 471.277344 661.714844 470.179688 684.179688 485.316406 C 706.632812 500.453125 706.035156 529.460938 713.386719 533.511719 C 716.351562 535.148438 747.914062 544.703125 784.503906 555.519531 Z M 784.503906 555.519531 " fill-opacity="1" fill-rule="evenodd"/><path fill="#fac0b4" d="M 917.320312 546.96875 L 904.941406 575.023438 C 904.941406 575.023438 721.988281 522.332031 714.640625 518.28125 C 707.289062 514.230469 707.886719 485.222656 685.429688 470.085938 C 662.96875 454.949219 658.980469 456.046875 658.386719 458.601562 C 657.792969 461.152344 657.214844 466.449219 672.417969 481.070312 C 687.628906 495.6875 646.441406 473.410156 642.777344 469.816406 C 639.121094 466.226562 630.957031 456.785156 630.957031 456.785156 C 630.957031 456.785156 617.6875 475.695312 640.617188 514.648438 C 663.535156 553.597656 707.914062 549.488281 707.914062 549.488281 C 707.914062 549.488281 906.019531 652.644531 934.375 642.691406 C 962.734375 632.738281 975.378906 581.78125 975.378906 581.78125 L 917.320312 546.964844 Z M 917.320312 546.96875 " fill-opacity="1" fill-rule="evenodd"/><path fill="#d18c84" d="M 917.320312 546.96875 L 910.558594 562.292969 L 969.589844 599.175781 C 973.507812 589.328125 976.503906 580.1875 976.503906 580.1875 L 917.320312 546.964844 Z M 917.320312 546.96875 " fill-opacity="1" fill-rule="evenodd"/><path fill="#c9def3" d="M 951.296875 397.378906 L 892.378906 529.515625 L 998.480469 587.308594 L 996.28125 590.976562 L 888.550781 532.210938 L 886.925781 531.238281 L 887.695312 529.511719 L 947.386719 395.644531 Z M 951.296875 397.378906 " fill-opacity="1" fill-rule="nonzero"/><path fill="#d18b7d" d="M 811.09375 150.164062 C 811.09375 149.203125 810.3125 148.417969 809.351562 148.417969 C 808.386719 148.417969 807.609375 149.203125 807.609375 150.164062 C 807.609375 151.019531 806.027344 156.933594 802.566406 161.429688 C 800.769531 163.765625 798.472656 165.640625 795.675781 165.960938 C 794.019531 166.148438 792.851562 166.632812 792.105469 167.332031 L 792.105469 167.339844 C 790.9375 168.429688 790.765625 169.8125 791.316406 171.335938 C 791.714844 172.421875 792.527344 173.582031 793.589844 174.742188 C 796.777344 178.199219 802.667969 182.070312 805.988281 183.40625 C 806.878906 183.761719 807.890625 183.332031 808.246094 182.441406 C 808.605469 181.546875 808.171875 180.539062 807.285156 180.179688 C 804.3125 178.988281 799.027344 175.503906 796.148438 172.386719 C 795.375 171.542969 794.808594 170.765625 794.585938 170.148438 L 794.476562 169.875 C 794.691406 169.679688 795.203125 169.515625 796.066406 169.417969 L 796.070312 169.417969 C 799.960938 168.980469 803.007812 166.558594 805.320312 163.554688 C 809.285156 158.402344 811.09375 151.230469 811.09375 150.164062 Z M 811.09375 150.164062 " fill-opacity="1" fill-rule="nonzero"/><path fill="#d18c84" d="M 900.871094 163.828125 C 901.300781 164.304688 902.035156 164.34375 902.511719 163.914062 C 902.980469 163.488281 903.023438 162.753906 902.597656 162.277344 C 902.566406 162.242188 892.769531 151.359375 887.671875 157.949219 C 887.578125 156.058594 887.695312 153.960938 888.128906 151.648438 C 890.203125 140.558594 901.96875 149.175781 902.003906 149.199219 C 902.515625 149.578125 903.242188 149.476562 903.621094 148.960938 C 904.003906 148.449219 903.902344 147.714844 903.386719 147.335938 C 903.351562 147.308594 888.597656 136.519531 885.847656 151.214844 C 885.0625 155.433594 885.25 159.046875 885.890625 162.023438 L 885.890625 162.0625 L 885.933594 162.230469 C 887.359375 168.632812 890.835938 172 890.84375 172.015625 C 891.296875 172.46875 892.03125 172.46875 892.484375 172.019531 C 892.933594 171.570312 892.9375 170.832031 892.492188 170.378906 C 892.480469 170.367188 889.519531 167.507812 888.230469 161.953125 C 891.210938 153.089844 900.84375 163.796875 900.871094 163.828125 Z M 900.871094 163.828125 " fill-opacity="1" fill-rule="nonzero"/><path fill="#fafcfe" d="M 786.710938 143.773438 C 787.847656 143.773438 788.773438 144.695312 788.773438 145.835938 C 788.773438 146.976562 787.847656 147.902344 786.710938 147.902344 C 785.566406 147.902344 784.640625 146.976562 784.640625 145.835938 C 784.640625 144.695312 785.566406 143.773438 786.710938 143.773438 Z M 786.710938 143.773438 " fill-opacity="1" fill-rule="evenodd"/><path fill="#fafcfe" d="M 837.886719 143.488281 C 839.027344 143.488281 839.945312 144.414062 839.945312 145.554688 C 839.945312 146.695312 839.027344 147.621094 837.886719 147.621094 C 836.746094 147.621094 835.820312 146.699219 835.820312 145.554688 C 835.820312 144.410156 836.746094 143.488281 837.886719 143.488281 Z M 837.886719 143.488281 " fill-opacity="1" fill-rule="evenodd"/><path fill="#b9ddf5" d="M 999.929688 422.285156 C 999.878906 422.59375 983.355469 529.542969 923.121094 525.9375 L 923.289062 523.007812 C 980.859375 526.453125 996.984375 422.125 997.03125 421.824219 Z M 999.929688 422.285156 " fill-opacity="1" fill-rule="nonzero"/><path fill="#b9ddf5" d="M 963.199219 962.699219 C 963.164062 963.402344 950.804688 1206.082031 901.960938 1277.875 L 898.929688 1275.808594 C 947.195312 1204.871094 959.5 963.210938 959.535156 962.515625 Z M 885.671875 1358.910156 C 885.621094 1359.210938 865.277344 1463.066406 936.757812 1538.976562 L 934.085938 1541.488281 C 861.316406 1464.214844 882.015625 1358.554688 882.070312 1358.253906 Z M 885.671875 1358.910156 " fill-opacity="1" fill-rule="nonzero"/><path fill="#87c2ea" d="M 764.707031 945.910156 C 764.734375 946.578125 772.609375 1177.6875 833.191406 1275.875 L 830.078125 1277.804688 C 768.976562 1178.777344 761.074219 946.710938 761.046875 946.039062 Z M 804.417969 1330.949219 C 804.484375 1331.171875 827.144531 1407.800781 804.441406 1499.148438 L 800.878906 1498.273438 C 823.347656 1407.867188 800.964844 1332.175781 800.902344 1331.953125 L 804.421875 1330.949219 Z M 804.417969 1330.949219 " fill-opacity="1" fill-rule="evenodd"/></svg>